<mxfile host="65bd71144e">
    <diagram id="32gARqifTa6ZpwuGYGIY" name="Page-1">
        <mxGraphModel dx="1108" dy="818" grid="1" gridSize="10" guides="1" tooltips="1" connect="1" arrows="1" fold="1" page="1" pageScale="1" pageWidth="1169" pageHeight="1654" math="0" shadow="0">
            <root>
                <mxCell id="0"/>
                <mxCell id="1" parent="0"/>
                <mxCell id="3" value="" style="rounded=0;whiteSpace=wrap;html=1;" parent="1" vertex="1">
                    <mxGeometry x="180" y="120" width="310" height="550" as="geometry"/>
                </mxCell>
                <mxCell id="4" value="&lt;h3&gt;ECStack&lt;/h3&gt;" style="text;html=1;strokeColor=none;fillColor=none;align=center;verticalAlign=middle;whiteSpace=wrap;rounded=0;" parent="1" vertex="1">
                    <mxGeometry x="285" y="80" width="100" height="30" as="geometry"/>
                </mxCell>
                <mxCell id="7" value="" style="rounded=0;whiteSpace=wrap;html=1;" parent="1" vertex="1">
                    <mxGeometry x="222.5" y="450" width="225" height="180" as="geometry"/>
                </mxCell>
                <mxCell id="8" value="GEC（global execute&amp;nbsp; context）" style="text;html=1;strokeColor=none;fillColor=none;align=center;verticalAlign=middle;whiteSpace=wrap;rounded=0;fontSize=13;" parent="1" vertex="1">
                    <mxGeometry x="222.5" y="410" width="220" height="40" as="geometry"/>
                </mxCell>
                <mxCell id="9" value="VO（variable object）:GO" style="rounded=0;whiteSpace=wrap;html=1;fontSize=13;" parent="1" vertex="1">
                    <mxGeometry x="232.5" y="450" width="205" height="70" as="geometry"/>
                </mxCell>
                <mxCell id="10" value="开始执行代码&lt;br style=&quot;font-size: 13px;&quot;&gt;var myname&amp;nbsp; =&amp;nbsp; &quot;xiaoming&quot;&lt;br style=&quot;font-size: 13px;&quot;&gt;console.log(myname)&lt;br style=&quot;font-size: 13px;&quot;&gt;var num1 = 20&lt;br style=&quot;font-size: 13px;&quot;&gt;var num2 = 30&lt;br style=&quot;font-size: 13px;&quot;&gt;var&amp;nbsp; result = num1 + num2&lt;br style=&quot;font-size: 13px;&quot;&gt;console.log(result)" style="rounded=0;whiteSpace=wrap;html=1;align=center;fontSize=13;" parent="1" vertex="1">
                    <mxGeometry x="232.5" y="520" width="205" height="110" as="geometry"/>
                </mxCell>
                <mxCell id="13" value="" style="shape=image;verticalLabelPosition=bottom;labelBackgroundColor=#ffffff;verticalAlign=top;aspect=fixed;imageAspect=0;image=data:image/png,iVBORw0KGgoAAAANSUhEUgAAAcQAAAGUCAIAAAAks8W/AAAMbWlDQ1BJQ0MgUHJvZmlsZQAASImVVwdYU8kWnluSkJDQAghICb0J0gkgJYQWQHoRbIQkkFBiTAgqdnRRwbUiIljRVRHFtgJix64sir0vFlSUdVEXGypvQgK67ivfO9839/45c+Y/5c7k3gOA5geuRJKHagGQLy6QJoQHM8akpTNInYAM6AADJsCWy5NJWHFx0QDK4P3v8u4GQBT3q04Krn/O/1fR4QtkPACQcRBn8mW8fIiPA4Cv5UmkBQAQFXrLKQUSBZ4Dsa4UBghxuQJnK/F2Bc5U4sMDNkkJbIgvA6BG5XKl2QBo3IN6RiEvG/JofIbYRcwXiQHQHAFxAE/I5UOsiH1Efv4kBa6E2A7aSyCG8QBm5nec2X/jzxzi53Kzh7AyrwFRCxHJJHncaf9naf635OfJB33YwEEVSiMSFPnDGt7KnRSlwFSIu8WZMbGKWkP8QcRX1h0AlCKURyQr7VFjnowN6wf0IXbhc0OiIDaGOEycFxOt0mdmicI4EMPdgk4VFXCSIDaAeKFAFpqostkonZSg8oU2ZEnZLJX+HFc64Ffh64E8N5ml4n8jFHBU/JhGkTApFWIKxFaFopQYiDUgdpblJkapbEYVCdkxgzZSeYIifiuIEwTi8GAlP1aYJQ1LUNmX5ssG88U2CkWcGBXeVyBMilDWBzvF4w7ED3PBLgvErORBHoFsTPRgLnxBSKgyd+y5QJycqOL5ICkITlCuxSmSvDiVPW4hyAtX6C0g9pAVJqrW4ikFcHMq+fEsSUFckjJOvCiHGxmnjAdfBqIBG4QABpDDkQkmgRwgautu7Ia/lDNhgAukIBsIgJNKM7gidWBGDK+JoAj8AZEAyIbWBQ/MCkAh1H8Z0iqvTiBrYLZwYEUueApxPogCefC3fGCVeMhbCngCNaJ/eOfCwYPx5sGhmP/3+kHtNw0LaqJVGvmgR4bmoCUxlBhCjCCGEe1xIzwA98Oj4TUIDjecifsM5vHNnvCU0E54RLhO6CDcnigqlv4Q5WjQAfnDVLXI/L4WuA3k9MSDcX/IDplxfdwIOOEe0A8LD4SePaGWrYpbURXGD9x/y+C7p6GyI7uQUfIwchDZ7seVGg4ankMsilp/Xx9lrJlD9WYPzfzon/1d9fnwHvWjJbYQ24+dxU5g57HDWCNgYMewJqwVO6LAQ7vrycDuGvSWMBBPLuQR/cMfV+VTUUmZS51Ll8tn5VyBYGqB4uCxJ0mmSUXZwgIGC74dBAyOmOc8guHm4uYKgOJdo/z7ehs/8A5B9Fu/6eb9DoD/sf7+/kPfdJHHANjrDY//wW86OyYA2uoAnDvIk0sLlTpccSHAfwlNeNIMgSmwBHYwHzfgBfxAEAgFkSAWJIE0MAFWWQj3uRRMATPAXFACysAysApUgQ1gM9gOdoF9oBEcBifAGXARXAbXwV24ezrBS9AD3oE+BEFICA2hI4aIGWKNOCJuCBMJQEKRaCQBSUMykGxEjMiRGcg8pAxZgVQhm5BaZC9yEDmBnEfakdvIQ6QLeYN8QjGUiuqiJqgNOhJloiw0Ck1Cx6PZ6GS0CJ2PLkEr0Rp0J9qAnkAvotfRDvQl2osBTB3Tx8wxJ4yJsbFYLB3LwqTYLKwUq8BqsHqsGT7nq1gH1o19xIk4HWfgTnAHR+DJOA+fjM/CF+NV+Ha8AT+FX8Uf4j34VwKNYExwJPgSOIQxhGzCFEIJoYKwlXCAcBqepU7COyKRqE+0JXrDs5hGzCFOJy4mriPuJh4nthMfE3tJJJIhyZHkT4olcUkFpBLSGtJO0jHSFVIn6YOaupqZmptamFq6mlitWK1CbYfaUbUras/U+shaZGuyLzmWzCdPIy8lbyE3ky+RO8l9FG2KLcWfkkTJocylVFLqKacp9yhv1dXVLdR91OPVRepz1CvV96ifU3+o/pGqQ3WgsqnjqHLqEuo26nHqbepbGo1mQwuipdMKaEtotbSTtAe0Dxp0DWcNjgZfY7ZGtUaDxhWNV5pkTWtNluYEzSLNCs39mpc0u7XIWjZabC2u1iytaq2DWje1erXp2q7asdr52ou1d2if136uQ9Kx0QnV4evM19msc1LnMR2jW9LZdB59Hn0L/TS9U5eoa6vL0c3RLdPdpdum26Ono+ehl6I3Va9a74hehz6mb6PP0c/TX6q/T/+G/qdhJsNYwwTDFg2rH3Zl2HuD4QZBBgKDUoPdBtcNPhkyDEMNcw2XGzYa3jfCjRyM4o2mGK03Om3UPVx3uN9w3vDS4fuG3zFGjR2ME4ynG282bjXuNTE1CTeRmKwxOWnSbapvGmSaY1puetS0y4xuFmAmMis3O2b2gqHHYDHyGJWMU4wec2PzCHO5+SbzNvM+C1uLZItii90W9y0plkzLLMtyyxbLHiszq9FWM6zqrO5Yk62Z1kLr1dZnrd/b2Nqk2iywabR5bmtgy7Etsq2zvWdHswu0m2xXY3fNnmjPtM+1X2d/2QF18HQQOlQ7XHJEHb0cRY7rHNtHEEb4jBCPqBlx04nqxHIqdKpzeuis7xztXOzc6PxqpNXI9JHLR54d+dXF0yXPZYvLXVcd10jXYtdm1zduDm48t2q3a+409zD32e5N7q89HD0EHus9bnnSPUd7LvBs8fzi5e0l9ar36vK28s7wXut9k6nLjGMuZp7zIfgE+8z2Oezz0dfLt8B3n++ffk5+uX47/J6Psh0lGLVl1GN/C3+u/yb/jgBGQEbAxoCOQPNAbmBN4KMgyyB+0NagZyx7Vg5rJ+tVsEuwNPhA8Hu2L3sm+3gIFhIeUhrSFqoTmhxaFfogzCIsO6wurCfcM3x6+PEIQkRUxPKImxwTDo9Ty+mJ9I6cGXkqihqVGFUV9SjaIVoa3TwaHR05euXoezHWMeKYxlgQy4ldGXs/zjZuctyheGJ8XHx1/NME14QZCWcT6YkTE3ckvksKTlqadDfZLlme3JKimTIupTblfWpI6orUjjEjx8wcczHNKE2U1pROSk9J35reOzZ07KqxneM8x5WMuzHedvzU8ecnGE3Im3BkouZE7sT9GYSM1IwdGZ+5sdwabm8mJ3NtZg+PzVvNe8kP4pfzuwT+ghWCZ1n+WSuynmf7Z6/M7hIGCiuE3SK2qEr0OiciZ0PO+9zY3G25/Xmpebvz1fIz8g+KdcS54lOTTCdNndQucZSUSDom+05eNblHGiXdKkNk42VNBbrwo75Vbif/Sf6wMKCwuvDDlJQp+6dqTxVPbZ3mMG3RtGdFYUW/TMen86a3zDCfMXfGw5msmZtmIbMyZ7XMtpw9f3bnnPA52+dS5ubO/a3YpXhF8V/zUuc1zzeZP2f+45/Cf6or0SiRltxc4Ldgw0J8oWhh2yL3RWsWfS3ll14ocymrKPu8mLf4ws+uP1f+3L8ka0nbUq+l65cRl4mX3VgeuHz7Cu0VRSserxy9sqGcUV5a/teqiavOV3hUbFhNWS1f3VEZXdm0xmrNsjWfq4RV16uDq3evNV67aO37dfx1V9YHra/fYLKhbMOnjaKNtzaFb2qosamp2EzcXLj56ZaULWd/Yf5Su9Voa9nWL9vE2zq2J2w/VetdW7vDeMfSOrROXte1c9zOy7tCdjXVO9Vv2q2/u2wP2CPf82Jvxt4b+6L2texn7q//1frXtQfoB0obkIZpDT2NwsaOprSm9oORB1ua/ZoPHHI+tO2w+eHqI3pHlh6lHJ1/tP9Y0bHe45Lj3SeyTzxumdhy9+SYk9dOxZ9qOx11+tyZsDMnz7LOHjvnf+7wed/zBy8wLzRe9LrY0OrZeuA3z98OtHm1NVzyvtR02edyc/uo9qNXAq+cuBpy9cw1zrWL12Out99IvnHr5ribHbf4t57fzrv9+k7hnb67c+4R7pXe17pf8cD4Qc3v9r/v7vDqOPIw5GHro8RHdx/zHr98InvyuXP+U9rTimdmz2qfuz0/3BXWdfnF2BedLyUv+7pL/tD+Y+0ru1e//hn0Z2vPmJ7O19LX/W8WvzV8u+0vj79aeuN6H7zLf9f3vvSD4YftH5kfz35K/fSsb8pn0ufKL/Zfmr9Gfb3Xn9/fL+FKuQOfAhgcaFYWAG+2AUBLA4AO+zbKWGUvOCCIsn8dQOA/YWW/OCBeANTD7/f4bvh1cxOAPVtg+wX5NWGvGkcDIMkHoO7uQ0Mlsix3NyUXFfYphAf9/W9hz0ZaCcCXZf39fTX9/V82w2Bh73hcrOxBFUKEPcPG0C+Z+Zng34iyP/0uxx/vQBGBB/jx/i/b+pDGm8sxRwAAAGxlWElmTU0AKgAAAAgABAEaAAUAAAABAAAAPgEbAAUAAAABAAAARgEoAAMAAAABAAIAAIdpAAQAAAABAAAATgAAAAAAAACQAAAAAQAAAJAAAAABAAKgAgAEAAAAAQAAAcSgAwAEAAAAAQAAAZQAAAAAvYT7TAAAAAlwSFlzAAAWJQAAFiUBSVIk8AAAQABJREFUeAHsXQd8W0XSd5FtWW5y77232LGdxOkFkgAh9H5AKEcJvVzh4Lijw3d3HCUccNQj5DhqQgsEAunFcYrjJI5bXOLeu+Ruf395pdX6qVi2ZUWyV7/3s+ftm53dN0/6v9mZ2V3ruKQMK/7hGuAa4BrgGpicBmwmV53X5hrgGuAa4BpQaICDKf8ecA1wDXANGEEDHEyNoEQugmuAa4BrgIMp/w5wDXANcA0YQQMcTI2gRC6Ca4BrgGuAgyn/DnANcA1wDRhBAxxMjaBELoJrgGuAa4CDKf8OcA1wDXANGEEDHEyNoEQugmuAa4BrgIMp/w5wDXANcA0YQQMcTI2gRC6Ca4BrgGuAgyn/DnANcA1wDRhBAyIjyOAiuAa4BkyiAVtb28z5CyOjYpxdXBwdHQ8d3L9v726TtMwbGVsDHEzH1hE4XOzs5nt6saw9Q4N7GhrYkonR8a5urnaitv7+wo6OiUnQU2u5r6+d9ajBx97Ghu7BQT1VDLkUKJEEOToODVsdbmk2hJ/lCZZIAhwdB4aHj7a0sOWcHlMDIpHoj4//VSwWU04fXz9Kc+Kca4CDqUGPABDwSFwcyzo4PGwUMP19fDzApbSr654jh1n5RqH/GJ8gkFPc1VnW1SUopKeOtrbA32Q3abybW1tf36n2tkPNzSfb2igDIS4LDFobGAj6gl07BZfGPL0qOGS1v//E6o4pfHozLFy0lCCpXC7PzjrQ1tZaWXl2et+yZd0dB1ODnheQhWJKFEZYtrYGVTvXTLAcxTaKrvqKxT6MRaO1X252dq+lZ/ip2EDEuboC+z4oLfm8okJrFUssXOrjsz4qGj2/7+iRpt5eC7qF4JBQ0tt33trQ3NxkQT2fIV3lYGrQg67p7v798RzC+nhC4hIfH4OqnWumJ0+cIF2AMfhw7CjLWtA1Oxubf8+ZK7W3RzneHEdaWrwcHFLd3XF6W0QkzPCvKisFVSZ22tzXC/l9Q0MTqz75Wm529uQ27W1GOUAmL3mqJbhJpWhieHiYI+lUq3pi8jmYTkxv063WYm9vAjHlMhlMtoERsJvt7v5iSipu9caw8M1VVfgZT/62N5aV4Zi8nBkowXrknofO3XtoBup8XLd8zl7OdjZ2/s6BCV7J0R5xjiLHcXXa2to60j06xjPe1cFtXBW1MktEIphg8IpqvTqZQnz7/R0dIRxeUfJLGFMaOMHvLNL3krOxtsawPclNCrDzGLElxxQ7JsNlQcGE59m8UwRJcZrT2rqjvh4E3BoZHh66hMA/kO7hMaYbQVd1XeUiGxt4VKANVzs7XTxsOTQM1wT6GePiol+BbC1Ocw0YSwP6frSGtOFs7/L6qvfAmVW9752cDYIquPrKyn/bWtuyVxcGLV0etipCGsUyd/fLvy3+6qfS79lCSr+75hMI2VH+0/dnttw66+4E72Sckqt5jSdePvQ85RwX4eng8PyslDAnJ1ILY883i4vx613g5dXY03N79qFxSWOZRdbW66NjLvD3t7VWoihGyr/W120oKurXYVnAl/dQbBz1xtb19Pz5RG6VXM6KTXBzuzYkFHhBxeIqJO9uaHi1sGDCY2egFQAIojr6+6tHt3iwqWmFry8urfT1O9wsjN3jDQQFUhhFnsDf808faBK68y4PCr4ratTjRlcv2bObvTWWjnR2fiwhkX29oWMvnM473trKslEaz/H3cfHJUimrFkTPPiwtzWtvB5uDre03i5dQfkJ8MC+TLXk05xhhZgs5zTVguAYma5l29XVWdSqiE3MC5tuOxDrYtjMDFxLUO1qrBqaLoi4VICmqONpJrk246aG5f4TVyUogNBEisXN6ZN7jyT6pFElxNdF7lia/ISWwGd+bO48iKarAifZQbCwGvCCQC2WIEK08+OnC/7gmIID9bYNe5ef//tx5MIQ1a0U4O/8pIZEiKRhgZEEIwTjKj77N8/RkxeISToF3uBdgCuUcF+GtqggAElTMbVPiF9QluITT19MzKJLiFP3/S1LymgBFoJ/9aHonNUsoP/IE/pUxh0VSXALcv5SSemlgEGWjxEJv742Z8/EKFKgFljvtiSHfckF1Kl8/IXJ2EfsHjHnYubrql2PIVXcPT0PYOM+50oCWH/Z4u7Kn4tcbEm8FwKX4pB2rG5Xfszh4BaQNDg/mNhxjxdbJan8s+bawKa+puxGeuCDXkN+m3hvsGjrLJy3Db97h2iyWmdKZgYtAo+7XhZ8DwR1FkhTftAsjL6EM4yLuiIwi4JXV1LShuAi2z0IvLxhEE/tRsU0jcwiZmChB2OqZUyfPyuXBjo5PJCaFOjkBeq4NCYHFxPJT+t9nzmyrrUEs6KawcGAKenJfTOwDR49QBhCygYEtVZX7GhshHPYdAPTW8Ijz/fwg+eaw8FcKC1hmA2kPFZg29/YJqnT295MSd23+BChwV0PDO2eKZYODS719SPbYPdHRO+rr2GzWr6oqf6ytIXLui47RE74LkkjujY4BJ8zt14sKkXwGQx5AiTeNk0i0Pjr6QFNjIxOCB8giHkge2daamq8qK2q7u1GYJJU+GBNL7wWduXr/PvKWvigg4JbwCFx6+Nix6m614d85MED5DSeCr7nOJS5+TH5ZeVnJm8Jx25i1WAZvHx/7kUcgl8nYck6bjwYMeWeP0dus6v2Eg0An5XYXewIfcXq45uDAkPqb+n8Hn35850N7K3Y0yOuHhpH6PVzZcZYO1RcFL6cSNInTTSf/vOvR7JoDNZ1VJa1Fmws+vW/brZpsY5bA7sNYHmyVcvnTp0429/biRwtceKu4eMy6+hkAhb8JCwMP4ACRHMRz8LaokMsfOHaUDMORbMRaoFQawuVASfzsAev/Ki4iJiEsU9Y4/d/Zs1ft37epvBxiiTT0/OWCfAAr5CBFlEobF0Edr10agIKQE24E0oBQmjLRjZdO57X09fUODv5cV4skKvAA2i4ZbULCCYubIgcLspoCMTIghcid+Km2FsxI70dqAcb4pPzWiEi2FrwHBEnxftpQVAg9oK/t/f37GxtvPHhgc5U6AwFvBdIB+YByzkJ7fx/tFQijhNfYvhmRdnJyuuKq64jA4uJCI0rmooyoASNYphjpFzafjvVMSPJJsbd16BtU5u4tCFpMOrqnYgfb445ehRtL8EFhc3eTp6OXl8RbcIk93Xji3aFh5Y+BlPeqmmPZxqRTRpJ+wAYIU0CF6gNEgPmjOpvI/xCJhIxhf6mrkzPYBLjZWlMN7yF+/Iir0KxV2sY31VWUBvF1VVWKVJGZNNvdo6izk1zCb57lITT6D2ciIldoF0EbGj7S5NRVQsEUZq8mD1Ab6K91YL55dL7Uj7W1yKOCBHh1P6s4qylKf4nY1hZjc/AAPU+P+DopP6ZLAbLRz1kj6UG0fLG3IkcN3YZNSgsJgW6fUelNcMmIpzXfbrEzYEJnv8pbMq6mIyKjbrz5NkwhtRnJ4gLc55/O+/7bLeMSwplNpgEjgCn6urviV4ApRvppfnMQayK9XzxiYyKyBKgV3A+M1gujLoHn1NPRU2LnTK4ivg8CcCxgpqcNsjoYs/R0MoS/WOkBLOgYhewwhRp6elg/4Hhb8VP5FjWjGafa2wGmEAi7+ORoufjlo122rEA1u9TPUT19EAzANXgA5nh4IqBPkplQSJEOxATAtGdQmfVpZ2PN9oHQxPTTLEdJ/mjtwfpDDil6hb5p5ddfGKhSHbB4y+IlgnbJPSL7FcE9mKsQhZA9KTzc0kJK9Mufiqu9TU04pkIyZDo4iO2YAUFlxdl9e3b1a3uhTlEHuNhxacA4YApXKRyjAFMM0gmY+jj54UBX9lfvwUCe7RO8nFfH/4YtMZCul9cZyDkmGw2nwN4RMMN3prB2JvoBUJKqyE4XyGhReSRp65QBGERpQmC2PiEo7uMUAWvEYQQow1bUc4llE9Atqq66iLSM5QlgaTVaW7V1G2A6sVBYiCqtAt3T6gkh3XYUiYgnlzimUVjDuD4Ft2bRp2eKC9956w0saBIZHT1/weKQ0LA719/3v/9uPJ0neBdb9F1On84bB0wxtM+tP5rmNzfBKwlJo90D3YuClhElwTfKagtZpQRJAb7bS3842Xi8rae1f0gBHH/IfNJL4oMkSpafpdt7hLFm9uq46IFhpS02MfTR05ae/tOXirWVznvUlExfRMAXiqSIzCDRqqG3t3tkYI6kesSgUHcccpmW6BsFQR6mWEHCDCQlmnCPcuJOJQyT/0s7j9mrCMRpFQht0JiYzQRvV6vgCRa6xMRKQsPGrNxdXdWhcvuOyUwZYISS2fdFRQXNTU1rL70Cl85fdQEHU6oisyKEP54Jdw4jfYApqs8NWAB6ccgy0K09zQgusTKXh64kpy8d+GtJazF7ycV+jPQRCkZsrYnRiPmSinDDCcwrrWFrw1upYyQLalF7ra5H2Tpl0MzEQiY8uUq7ihwgAv0flZUiEkXrgtCabsUyUJoCFi0BQcE03FnpcqFXg1XWIuWhl0DgjgSZsCROhbAYy2YgTUUBo0lITX/FKpVByhrv+qsY/arXoiUGRvMnAKZsb3OOHbn4ksuROOjqaoSJKqxkThtLA0aI5pOuIHmeGJiLQ1YgiO/moAieCEJPKAl0UTgN4UgVICm8qA6iiTjaSOvj/Ut/qxmjc/eApDQao0smCXkD1yg4spy1Ktcn1tZjy0HHq5INKT5SBlidAmnRzoosenzqVQJpSuzOkVlJ5Cr+Ah8TVJJpoYCgYXrkwwsu4RQvAJIbgMwBMqinPHNV+jmpkYIKHjbTAKfAdKI92mcqxxACmRWETSBWV12YqKTbmH9l+AiDDkoQ79Il2fDyoX6hf0Zr3WGV00brVUMKYaW2jCx4iIX4DOHnPKbXgNEeDJKcDlTtWRpyHsJKF0VdRu5kX+VuwS3J+xVZckjRx4i+Sa5eD/Tq+BsEnFN6ipAFzB/8Ai8PCkIYvUe1xOeVwQqs1/+hyYkpUimZbcnyw7wikjHu/nfJGQTxyVWMl0kOOa5iwT22CqGR5M9OWr8kKJCU57S2EKKzXxlqT3X3YEfBaIhGojTFkhL68kBuwPY6oesZXUIhOgDmVf7+31dXk1pI8yKFOEUWJylk/2ISKqsBzJIiVxGOZ9kMpBH9K+nqAtwDHPEXtKAi+oO3DpvSkN3cvMjbG+YwgnLIf2D5YcT5i8X0xumlxh6l1YyXk9YHQTkNIc5+/JEhbEbhGZg0IhulG1yILg0YzTJFA9QOnRewAKfIq2/ubhQ0XNZ2hpSsS74jyCUENOY13ZpyN0nIFzBP3SmMmh9G0AEwtCE9A+FjjHCRy40k0DEbpUiB2Z/IrsfPHgeNOwGXSVYQTLxXZqch+gyBsNf+MTuNBFW+r6mmdiLb1g2hYSv9/IDvqHhzeDji9bha3NlJ86IKO5WrR98YFoZZ+XDOIhEKAP2oAUnjlTIZiSBhrhRWUIXVjD5TUxcNfadKzEJSPZaYQqAcV59KSiaJDchM0Dpyhwl5f0ws7gvINd/Li2SVAZq/VUljb9AQ+h8F+YTtlbR0TBgjxiPeQ3g6EP7VosUX+isQn37eLC5Cczi9OyoaWVnEyQDMRYrVe3PmwpVMOSlRIVcmvaMK+owbxHcAhx5nN61rDoTWKYLm0DHeB6NZplAlgBLponTxEcyM0tTvDyXfnhd+IbKgMA30maV/JzkAYOsd6IFtC4tVs8oUlWwsL0PSImYlYebic7NSSCsYNsI5SJFRa9NnZTIEf87z9QPqIT+fpOjDjLpXtbrzFxUVF/gHAEAxSXTT/AX4tdNBKKyqT8rLtYpFIWCRRUZURPY+Zc5tbQW2Rru4AKDJYk70EibU09A2LWQJZA69dab4dyOwi57jIFfp6s5Iv4crdh2ZGhQbx67Xhz5jxj0rjdJQF0xXHOw9vltyRn9mPq2uSWDhaqTf3xoRAd1iPhUONAFak5OU4GFhUQKitGtCQnCw/IXa8kzhgsDqAZiyAeT9a1IylfyH4zknNJbBplfNgegecceTnFNz6A/vg0ADOr+mAj4DT/dV7aKcB6v2UZoSyPB/Yf+TyBglJWSWPdL1/7r3j7UyxUBySPc6b0BbKmfyBIxTzFDCNBsybAQcYGY6flGtI3lCdOCvtaF/5Odjtg/WIqFX2W4DSm47lEXX4adIilXr12UdxPwcWgsEmXgDlHy1sBB9oJcQPQc602xTBaeV1ZMnT0AI5QGBtrDO084GZfot2w2WDTQmEWB5Uwxs2VZYHgS1MINTgIPo2F2Hs9k7RZUhVa7bw8eOEoOX3CMk/1/+acFwm23CEBp2PWbQ0uE5RVKgJKaoHdJYFBkOCixJQ30ClB/vvO11tVpbxHyqfxYU4A3EqkKteq11zKCwVeXwmZ2WYQbd4V0QasA6LukcPBgMVfycAnyd/BCzKm0tRiqVsF+mPceoFrPLCa7BloTphzlFj+Uen2QvMN4Md3JCBjtymGBzAQ70C8RIE4YnTFpAgyCHn62IUBXEiqxtsAeJ1tE3yzwBGuueYI4WXLRFnR1j9hnyYRTDJwBswioEY07KfCUtDU4G6HrN7l36+wbvATJPfRzE8sEBmJPVmCrKvGw06wJGwQ8/KbwoYNajQM26FlESGRV9y213kq7Kurpk8q6sA/sPZ2dZROdnQieNOcw3XF/4VdR2VeMwvMqUclInJtLpiZeTetYm0y7m+8PjSZ2eY4qCXWnItnoA0KnAUNo9rCTCLiZCy3URgFEcuq6y5XiJxrgoEuAMkQ8bGdootFJ6ilk5WmngPuaPmmAKqdbWTVBYcqb4SHZW+px5UKOTszMObGTCwdQEmjewiXMDpgZ2bkrZEHPAfnMIB2HVKDLcg0n458Qk0ui3qoj2lPZhRgnHiwrrWhGHQJ62RKsZpY2J3ew3X3/107Yf/Pz9pVJ3Vze38rLSicnhtaZCAzMXTDEqREwcB9SKISGG2MQmxSnSgGgC+VQofUbJ1Lpl1kd855KJfgl6ero5hk5UeVNbb+aCKUaFCD2RZBq6sglMVES9aaLl1Op+ZkgXpBwh/o41D6efQ3NmPEx+l/o0cG4CUPp6ZNprCOYgNQoDfPg3Ef9F4IIM+U3bi+ncGl5UZIauwlHe00Nn1k/ne+b3NiM1MNPBdEY+dH7TXANcA8bXgJHzTI3fQS6Ra4BrgGvAEjTAwdQSnhLvI9cA14DZa4CDqdk/It5BrgGuAUvQAAdTS3hKvI9cA1wDZq8BDqZm/4h4B7kGuAYsQQMcTC3hKfE+cg1wDZi9BjiYmv0j4h3kGuAasAQNcDC1hKfE+8g1wDVg9hrgYGr2j4h3kGuAa8ASNMDB1BKeEu8j1wDXgNlrgIOp2T8i3kEL0YCNrXVkio+DRL14EOjbnl+Mgy108RAnLwpyclNsDsY/00kD6gc/ne5qqu8FC8s7iUSdAwMVMuXubFPd4lTLd/UQk593W2N3d1efojlrK/8wxW7VgwNDDZWdU92BycsHYPmHSyGnpqStr0e5k+vkxRou4frH5nkHuRQdrfvhvZOklq2tDRQLGgSVs/auFJ8Q1+gC382vHaWFhMAtePg6gZZ39bU3Kref8Ap0trNX7EqNp4BnIajCT81HA5YBptg9dLG3D7aoxJKj2BwJC7jltLYebG46Vyu5PZmYhL06sJ/SPapN9MzniU6sJytvTgyO9UDdIz+X79tSDMLVXXztH+aCwGpPr93zy8TEmrJWeJL3Bbcq1vb+/p3cMznqXcRN1ofdnxde9UhGTLrfgW9L2hq0bz0QMcsbSAqVbv84T7NjifMDl1wVg/Km6q5Nzx0kDNf+fq6dgwJMP//HYbwnNGvxEjPRgLmDKdYbBXIlSxUWB/mQXT8zRzYWfjTnGHYhVl1R/scWRti9GSdvnimmu9oJePip6TVw0W9nhSd5dcv6P3hir+lbN0GLVcWtlUUtwTEeq9clfvb3w5otWttYr1qXiPLcXVWdLerdGDU5eYklakA9+jDD3ltbWT2dnEyQFMuMAhm/rKzY29hIt67EjnWa3XawtSU7oZOFnzUZJl+CFY6xtnRr38hwePLiZoYEV08xLCwnV/sput3+3oEhbGA7NNzfMzhFTYwp9qcPT3W09LQ3ad8gUmRnU5Hfgqt7N6t38B5TJmewFA2YtWU619MTO1lClRhQ/+54jnxA7QiLcXG5LSJSsC+xyZT+++M5JmuLN2SgBkpyG1+/9xy4Iy64LTkgUj1yQm8DotwRdAJhK1K+7G94PBMoT29k3dMLKY2R+7YPlD5WWsgJS9SAWYNphocn0elLp/NYJEUhtvyc/FbMWh9YkESCzZlh/NZ2a7cvtNbSU4gti2NdXeHqrZDL9exrLxGJ8IbAtqOVhu30qadFk12ysbGW+kjcfSU2tjYYt7bUyaYo8uMsdQBCdTR1N1R2DA2qUWkyd+ob6uosFdeWtck7dI8wrK18QxRsVUUtvd3qdznbLoJOJMrEFgpo9F9QQk/7e10ozQmL1oBZgymC5kS5iJuPqeW358yl/IT5vugYHLTix+Vl/y0vp6eE+HvqbLgRsFPxHYez742OWeztTZ0DwFPgNY1xpbq7P5M8i61+ur1dK6C/np4BWCzu7Pxb/umnkpIRqiK14KnA9kfZzc2sENDYOuX5WSm083AgvFlcjOYWeHk19vTcnn1IwI/Tvzz9gkikfHbvvP1GVWWFJs/UllhbLb48OnV5CDW+SHNtjfLv3sptru0ip3Fz/GC4sT0B/0NvraQlWqNbS6+Onb0iBDxv/25X6rLglGXBjs5K5wDC2T9/lFd4pI5KuOXpha5ejvQUxLdvHi/Pa2JLQEemeK+9OxUEwlNIYIqd44c3AeFBlPzLfx7RfA0svCw6Y1Uo9lUmbBi/b9+Yd/kDaTjd9VnBiT1VpPy7t49LvZWPmJTg7/y1kQBr4K+Do+IxtdbLTu2vbq7RkvuhzJ2gNTlhsRowazBt6FU66c/38/uiYgy8wG6j+p+CVgY4WFELf++KiloTEMBKCHB09Bc7UjAV29gKJFDYZWsppI30BNVfTUtHBhW9il2OAce3HcqiPl9cwgbIb2bMgfVK2dDKQ7GxQF7wu9jZ0XKWsLXFReWPnKIqyzDV9IW3JgOPNFsBrCCVh4KpjWqcq8lJSuhdsAwie+WjTFwQkHlxJHsJWBya4MmCKdKJKCwSTlqdrQjbmZwCqV3cFelK9OMT7HL5/bMFIaMLb0+OzRh1gzA/r3gwjXTYXqx+rAjcs7F7ZJhdfGcKkBQo+cXLR27+6wI05O7rtPiKGJQUHq7P3VXRqiPWT7vECUvUgPo7YYa9P93ecZ6v4gt9e0SkxFa0rbamvkcJr5q9vffIYRKPwjj9n7MV5sOHpaU/1tZQTj0OVmRcXRoYBJPwnZIzBR0dGIzDV3tbRAStC+JIa8u6LGW2ysuz0+i+0CwPSxMYfaO4aFd9PTq2Pip6iY8PGK4NCX2lsIBy3hEZRZA0q6lpQ3ERNkxd6OX1WEIi2V+esk01UXqicXjEqUeTb3rkA2fzmwHYmsNbQAlBUtiVP/0nryK/Wd7Zh5EsCjNWhQ0OqnMhCw7VUiPxigfSgbNwHb73pz30dobVvLRMTQCAcJJ3oOZMTr2svdc7xHX+aGzF1f++cMh+JHMoarbPgkui1JV1UEBS2Jg/vHuiqbozIsUH2VTAYv8IKbAS5aQSRu4ESXGDMISLj9U7u4svWZ/q4accKmmVDfN54WVReAEAcHvk/R8/e9BK5ZDY+u6J5MVBwbHuqcuDccB+P7S1ND+7ljIQgQ0VHVAm6KpidQpU0ZE65PmjsKtV55dfa394oYk1YNZgCvS8NiSE7MN8fWgoDngej7W2bq+rPd7Whi86qyxgJYFL4BEplw0OUJrl1EqD847sQ+2qugh5/VRXyzaBUDGF8t5Bg+LFgGa6azSG/EjngtXJpnn5icUYy6M/8JPCA0DuZ1dDg5ud/froaK39nKLCnB0VOFjhGPZuef0YW0JpGm8pOd5YAEQY+XS19R7dfhYHZQMB6KQeyYF+hdIA2bSE5dRFI7O9oqCFXMV4PG9/NWsVopxCTEezQVgDR8HGp/YP9CtQHDgFsxQvANBBMR6ns5SvXlivKMEHrwpyg7A9//t81vp/LkdEnlxi/yLla/Z5ocBKYrdCzo5P8tGExEXpnagubgUiY8ifdn5o+vmhsN9X35K04vr447sqD28rox4GJFfhYCWD3r7ptKCEn5qnBrR8M8ynoxjq3n/0yPFW9dcLOU8rfH1fTEn9cuEiFpUm3+f3S0sokhJpQE90YDKSt9ao7eKB4WH4WCGN7HtMxKa4uxPiq8pKtqWf65QIpav1+vq69vY2csjlWjxxuioapZz++N31WmqTbwsYRJGUSqOt05JxEQA1gqSkFnIACME6Xv3CXFE40DdYcFj9IIDCMJA127rsvrRL750dEucBJEUI7tO/ZcOYJU3ASJd19HW29vT3KV4ksPEPflfy5iM7s74vgTQkis1ZHSb1HuXw1ZTPSyxFA2ZtmUKJADgEeTByv8DfH8F9GqXBIBqxoydPnDjcIoznTEz1uxuMPGcGpq7AgG3u60XfWPcofLKktwUdo6YewMSGr5aY5Fpv580Nr2gtN00hRqOw2YEdnv5Ov31xCeCp7GQj/AMsSBmlJwjaGEUOK6SxShkcI4VAOkI4Oivd00itF41M31R4NtlXnJVVdXFb3Fx/VhrovV8VhSZk1pxp2/NVUf3ZDsFVZL/CGMe0fVqOV3TW1lLMNFtwadTgwLBFTNWlneeEHg2YO5iSrlfJ5e+VlOBApGiuh8etEZEI7+DSo3Fx1x/YP/oLr+dmdV6Ct7THsJG7ThEaFwR2Lq4PMJmGhB3RJ0JgFoBAABIYFB5Ws/wANHd+WrD8ujjgKVyliLyT4HtzrQxh7spC5ah88n2HoTd5IQIJsrZR3oAhlYeX4h0mF5AqcFwI6so7hSVgQLRtw/2/ak3YConzxIgeL54+jXkE0OGeL4sE8vmpRWvAMsCUqhi2HmZAHWhq2rJ4CfyPGPV7i8U04E7ZxksY7lodr2T9/DBaCIOJw036e2XIVSQGIaSOAFF0mi/J/kEtGKpXPpT+7VvHEc4yRMiYPJpwNmaVMRnG9NzAWiRCkDEhkKa1buLCQBIBEzDjFPP08Re1kOCleZWUdHf1U7+zLh5ebhEasDAwJTqFKxNTS5EvhdNgiWTyYHquHhWdF4AFBwSTU1nX6rnqnv52e+UDv2w6jQPJQLBMEa0mqLrs2jhjgSkbANTfGSNepREtJ41Me2q0ss2tuC5OkGzLXgWNbAEa0RJcwimcpxxMNdViiSUWCaZQNA2syweEgXUaNSL5nub8VGjCKdzBJV1qXx6QFPCqp+fr731QopoL8PHGDxrq6/UwT/UlJC1hoSk4Ae/821IAh4u7g9YWSeoVHU1r5TGTQni7ER1Ccihi96wjODRBkXoh+JSdaqJRe/aSX7gbmwALRzMrinIiq4zSEybuf+hRa2tlMPm9f/9LbjmT6CZ8y2ZY0azBFHPzJba2CA0JvKJI21w5YpZCoeUyNQYR/Tb1Kh1bEc7OZqhxtkuHW1oA/RjjXx4U9E11FfXbXhmsc1RIqvv5B9ioJilIJPqSH9nmjEUTjGAnm0Nyj6wfNp2rp9ILrNkWsjj9I6wUblZ3MbX+NNnMoQSWNZkihawpBItIl2CAhyUq5zeznfz+37nsKaGDot2xHB9oeFSRnYq7hmaQw0+nM2hWmUyJj49ilEY+9g4OHExVyjDpf7NOjcKkTKSvfzx/wcWBgZHOznCSim1tZ0mlr6Wlk0g3pmxqpuL3Dw0RHygS/tcGBmI2J1lECtUnrFo4zxD7ogd+GxAFEKQlICYgvLO//4eR9Cn0EMsGYtlWrNl6S3jEVcEhE5Bmsipx8/zvfW3F6nVJSG5H7Bvtevo7n/ebeIKkWidNgqdRtcL0VQ+nh8Z7ghnBK7Ii9YR7jvE1TEjlMRKChyiRnaoET2WsKVham6arOmH+1bJr4vzD3ZDDf9Nf5pPnrrUKWwg/Mpl1ihfMJy8cQrou/BViJ7sbn8yEg5Xl5PR00oBZW6ZE0ZhrxE6xp9qHTffMKe3L7XxUVnZ/TAw4Md2e8n9WcRZzoujpuIgkqRSZWIIqoU5O3yxeQgsfPHa0sEOYGUOv6iI2lpfh9QBRcP4+NyuFsCG7APF9pPTrqnXOywFS8Zn+ONATmKjseBYBfa3dO76zInNNBLKOEOAmWEPYXl2/XSu/IYXrnlqgaQuTJaJJdeQDbHz6gCGiWB4EvoCnZP4VmbNEriJ1Hwu7sJwCGlOV1twxy29khwIA6ObXj8ElilTZrzfkrF2fCqfByhsTolJ99m0uNqKJKphPfE4czQI9zMzTiRtrJtAXokyYDyrTtsoJpgndeiirUTWiF3Rma001slOR7U/9p2DQSExSVCLLOOlZzIlI1hrGJZfoX/olJk4JtmnKo0nAOL3v6JGfamuJNY1ap9rb/nA8p3UkKZUO/AUVaVsoHxoaElyd6tPmmi52NjpFUqzU+dWrRzXn8JD+wGP4wZP7kAaAZHj9PVTlOGC6lH5GRaDcwA/VmMA7QZsQ5DZhKheWRIFrglREvn3h4TokhJHmEHxj28WkrFlLgrAk/m3PLSJICpt007NZ8JMSNkzMff/xvY1VnTjFdCkYuXe8tARmL13AhZU2Xjo6RjlfCxUV8zja1FNRxyuK809GA9ZxSQrPjpl/MKjH+vkYCwP1EAGv6+nRhTJmfiP6u+csEskGAacKhNg0fwFMcrwPtC5MpV+Oaa7COMUOHG5ejtihqKutB0mmHc3GWbTQNP03sBW8KuwdRQBH8AMxMQcUBFZFqS1VYBZM0SseSEOoikrDOwOxOEwShU1KCykBd8GSq2PZFbKRtL/1nVxd60nTinqIK666dnaa8lf8340fFhTw6ad6tDWFlyxgmI+7R/KT5eY/Gf70ulQ2OJL5yUIqFSafKmp4bwEWABSCKYbXsjhOWLIESdFzuo5Ui2qNQVlbL/Ez4BVYU9KOWflY20UrjJIbR3IujpgMP8zQ9wlxgRMW4SlMOZ2MWiKjlMs4tLY0cySdjCYnWdcywHSSN2nO1WFu/zE+4fuaaqwaRTwDSIr6c6JiYzh8vq02/nxKIpn/1a+B5dfG2Yltj/xUTmdhpa8MC4xWrKWA9wddSQtQi0VOBwaGSnMbBQ4EPfKxwAoOuI/j5/rLOnrH9HvoEWVv7+A6shsFeL75+is9nPzSVGuAg+lUa3gM+cgxmO3ujgN8sL5trK3p4n5YJwXzaMeozy9PjQa8glwCo6QJmQEwMwGdmI9AEgNggW77zym2zYLDdeyp4TQw9OS+KsP5tXJGREaR8oaG+pIzxVp5eKFpNMDB1DR61tkKAvcIPZF1punKJjBR3zpTTJfv01mZX5gyDbTWyQCmEA8MpTn5WIf06zdy6I72U9b4OAQXFea//PcXsCALzy0dh9amhtUyAlBTc+9mJBU7lyA1CgN8JMmelcmqu7vJkN+MujjzugIYRYYpluZDiiiwtb6iY1wrsc48hc30O+ZgOtO/Afz+uQa4BoyiAbPOMzXKHXIhXANcA1wDJtAAB1MTKJk3wTXANTD9NcDBdPo/Y36HXANcAybQAAdTEyiZN8E1wDUw/TXAwXT6P2N+h1wDXAMm0AAHUxMomTfBNcA1MP01wMF0+j9jfodcA1wDJtAAB1MTKJk3wTXANTD9NcDBdPo/Y36HXANcAybQAAdTEyiZN8E1wDUw/TXAwXT6P2N+h6wGsD1qZIqPg0S9xA/o255fjIMtxKrPyYuCJrlFFdsup6e9BtRfqWl/qzPtBl09xAQL2hq7u7tGlh+2tvIf2Z4Iy8phgfeZphByv9c/Ng/7ABYdrfvhPeUGYra2NtAVroKgOll7Vwr2EYgu8N382lFaSAhgrsfI0vryrj66gpRXoDN2HAADFKtncWiBKH46nTRgMWCa5CZd4OUF1Q9ZDb9fWkr29phOT8Lo97Ly5sTgWA+IxS4a2NcehKu7+No/zAUB7b12zy9Gb9EiBO7+vBCbMMek+x34toTdyYrtfMQsbyAptLT94zy2nNCJ8wOXXKXYqLGpumvTcwdJITaAwiapoD//x+GaEr4LE9HKzPqrfhWb+X3fGBZ2RXAwDmyDnKhaWtzM+8y7Z4YawH5/lUUt6NjqdYlau4fNq1eNXMrdVdXZ0qOVhxdyDWhqwDLA1M7GJlmqWKmXfBb7eKtI/p9rYNwa+OnDU9h2VNcedtiQuSK/BVex2/O4RfMKM1gDljHMz/DwsLW2po9pqbfPW8V8hwaqD06MrYELbksOiFS/j1EhIModQScQZD8SEDc8nsnu47Tu6YVULkbu2z5Q+lhpISe4BlgNWAaYLvb2IZ3eVF52Y1g4NqELkkgM3B8JG0DGurjAtq2Uy9v6xt4GEpJ9xeKa7m7sKc1qCjQ2aMKO094OYjsba6yH32KANIEE8z9FFFvqLcFGHc21Xdi9eXjI4J3praycpQ5AqI6m7obKDsE29Jo3rp8Zi9u7+0iw8Wdnaw92n8f+yZoSxlWCoBOJMumphS7putrf66LrEi/nGiAasAAwhUU6fyT0dKq9bW9jI8AUXV/s7f2/s2e1PsWtS5fBjP2uuvrTirMPxcamuaut2qMtLU+cyGVr/T11NhwI1XL5HYez742OgViyHRN4gKfYs55sMZ3g5nZtSKjAQMbOIrsbGl4tLMA+TlTmhvSMaBcXlFy1by9bThj+lJC41EfxYvjNwQPNvb20Foi/PP2CSKR8HO+8/UZVZQV7dappNy/HZdfGIWCFQS7bFka7WzYc0xqoWXp17OwVIWB++3e7UpcFpywLdnS2J3URzv75ozzsaUxFGcpsbbXqpsTwZC8qikjAlnY/f3SqJLeRCoya7XPxnSk4zd1VufOzAlpOCE9/55v+Mh/02fzmLa8fA/Hd28fxkhCwzV8b6RvqSvbLw6XWetmp/dXNNTIBG06V6RCaF3gJ14BKA6N+OapC8/of4+rqaKuIkx5saoI92D04CHqpj6+uXhKHgJNI9PyslDkenqx/IN1DEd1mPw4jkvH3rqioNQEBFEnBE+Do6C92JMwA2Xmeo0ShHJJX+Pq+N3cednCiMnfW14PGnqMENGk5CNzFIm+Ftxd3IUBSFNraQp7yQ1GVrT6ltF+YW3iSlwBJ0SJA9ua/LkB0W7N1kb3yy5O4ICDz4kgW/jBwDk3wZKsYyIzkpIT5AawoIgSbg669O3XR5coN4lFYekK5tTL42YYInb4qlBCn9in3ysb7oDyviR6NVZ3zLooAkgIlP/tbNmF293VafEXM6lsSwxK92htH8def7dBshZdwDbAasADLFB5S0uNDzc0gspubgVNhTk4APuzryd4MSwPmcAqTc2N5WZlM5mQrAhpeHaKwpDQ/2F350sAgGJLvlJwp6OgYGh6Od3W7LSKC5ZQNDGypqtzX2AiLFZwA0FvDI87388OWojeHhb9SqDSOfq6rvTMqChXXBgZtr1ObZijBC4Ag+zfVVazkKaIBN2SQTjN1euQDsNRg6dNt39mmkQlUntd8fEcFdo7rkfXbi0UZq8PmXhBuMxLdfvvRXSwzSwOAcJp3oOZMTr2svdc7xHX+xZEsA0sbwoyUI6Rzodsdzd3A5eg03/NvTADQZ6wKy91dSSLscCMUH6uPzfBDQhJeA2WnmtStWFvFpCmePpwDxTmKdxv7AVIvvCwKLwC8uHrk/R8/exBbe5LP1ndPJC8OCo51T10ejAN7kR7aWpqfXUsZCBvcDhX5iq9iVbE6BaroSB08JCjsauUJAERPM+6vBYDpkpFxMXCTOEkPNjUSo2+Bl/e22ho9TyyntfXPJ3LpNp/5He0Y+Ovih/w7sg+1q9C5tKvrp7pams0Kl8I7JSX0FEJgWr5ckI/hPwzY5b6+FEy7BgYONDWibzEuLsBZ4iUgja4NDASB/uwYsV519cRY5Tk7KnCw0vp6BsiYly0kdMmJRsAlC7JgPvDNGQ8/p6hUH7HEDkacHusMme0VBYp8I3yQtZ63vxpYTE41/+phhn/g3cf2AJFpLZQUZNdi2tKqmxWZTJiVdODbM+Rq9g9lAFPQ6SvDWDCNnOUtGsmfL8SO9iqgBBswd/Z5ocBKwChOT2fV7PgkH4BLd3KuLm4FQMMKTjs/NP38ULgFVt+StOL6+OO7Kg9vK4NCSLtIrsJBaPp3+6bTlObEzNSAuQ/z/cRimI14NodbFLYAPkdalD9azXE0YaB/Xy8qpEhKCntGXASUgSXeLy2hSErKB4Zg/Sh/i4BaFkkJA64db1X8qDCoF9moNbmlSml4XuSvHoEiqBXp7AzmPQ0NWrtRX1/X3t5GDrlci9uONDpFfwf6Blkkpa1QkNJ0OFIeYBBFUlpIoYeWEGJMZhZJaV1Y2YR281Y6XnCKEBlMVxCB0VIWu9POCyXMQEBC4O9l96Vdeu/skDgPIGlLnezTv2XDq0viWoODQ7KOPkS6+vsUHiTo4eB3JW8+sjPr+xJAOSzfOavDpEy7VCYnuAZYDeg0H1imc0gvHjFL0YGsJuU4DqYf4vLYZX6WVIoYPTaa19o9reF4rZykEKEkPVdxCR5PmJZwwgIWkU5AmAGjlAD4EvpkWxvSBsBzUUDAf8pKSSFoQnxbrfTikVP6980Nr1D63BDWCrsveVGgs7sY1hly19ENmpAmGpneo7VjCNpoLddaaAgz4mBwaAI3HZ3s8Jpi5ZApm7QEpjdCW8DHWUuC4BlAOVA1IEqRAgUnKcbplHPvV0WhCZk1Z9r2fFWkaWL39w7AJQL7l/LjRZq1tRQyF1waNTgwPGNn31KFcGJMDZg7mC5ROUyPt7XRUNKh5qZgSQhO0909spoZZxlzuwBT5mwMEj5QrdYirYaI/0spqbQDtJwSgkvwiq4Lj4BXN0XqntumsF4vHLFSm3p74W2gtcyHAIDe9OR8YKiuLiEtTNclGHq6LmmW62cGgl/7+zmIhmlWJCWCXpzcW4WZnQowXRpMwBROTzKKF7g4YMZuuP9XrQlbIXGesLsx8ujrUVim7Aem654vi9gSTnMN6NKAzh+PrgqmLHcWiZBmRFr8YuEizabhTtUFpi19ar+bZkVBiZ5AFjhhk1IkxSD91/q6hl6MBRUeNORpIQYFQoA0P9bWAkxRDmMWYAosJnkC35ok9IR2x/u56uF0gqQYOB/7taK5pkve0Qd8QRyfxNCtRxmIo8R3tY1D1fqZV1wXR5C0v3cwZ2cFDMmuth4gIGzGG/+sSHVSm8ojXQDYlZ1sQieRQwr3LpA6ZWkQriD3XmACJy4MtNdhXGOePqrAo4MErxGpWv50d/XDdavlAi/iGlBpwKzBlKSXqrqq5T8YgGJKv+bo6ypv5+jSCZ0t9PYmhudHZaWC5FaJKjNUIBjDfOS0IhMLuVDA4osDFKEnfLbVmuMPEvlPxCUKMNr4zAFWoVGzFWFx/R9Nb7Iefv3McXP9URcQ+eFf9gHNqRzkjVJaQGT/WEYyt+asDs/+sRR5/mCAjxXuTpYTME1nOrHllEbSAjwG9FRAkDiYoJCfcg2wGjBrMCVxfHT3//JPt46ebvSb0DCYe8ApZKEWdkxtDiDSsIjKSA4pVR9wPMHVlZ4KiK+rqkha64UBASS9FKEzPSbw+nsflEiUWeUfb/ygwSQRf9Jn72Cl+V9wSJgGhNi34L6m7hRjfLLwUmNlB4ukaFGQtcr2oa68HeEjJ1f76HRfOhmUDT0RZkTSaNSere4X7gYYpSW6ZlvJO9XITpnHRQQGBl15zfWkSltr68b/vDeu6pzZ/DVgvmAqsrbG5CVoEAmeAhRDoYe9PcAUBJyqUw2mnf2KET0+qe4ebDIWBvg0EkUY2L9HWprRc8wduDMyipTrTy/18w+wUYWzJBIlfLMCp47GGJYID030ymYi4Bg4k0X8pq5pVjJCQPjA44mpnwq/iWrEAbDLvFjhM9H1yd1VseCSKCSiInsUPMBWzRDT9/8eNfONiAqKdsdyfKDhUcXNomkYtl+8fASnutqacLmrm9RbFQBwcxu1SsCEZfKKZqUB3Z6wc93NVHd3MrgmufqC7hw2OEFKUHECp4WdSssXywDOdndHKAaJUGsCAh+Ni9cjDVCAKa2UAcBKk7pooZkQ9eXKmFhglDR1eYgizcjaCmNnLPxh4h4SjyqyRFfemEim0mOAf8uzi9jMJ80uHd9ZyXoPTu6p1OTRLMFcgMsfSEM5Zih88sIhZOBCCNYEuPHJTDhYNfl5CdeAfg2Yr2VKFzfBLFLNe+js7ycJUshCRa5SfU+PJo+xSnJbW4s7OxEKQ1svpqSyYjHDKlA1NmfLCf19TfV1oaGE/qlWPQVAk/PclsBHiTR7giDLronFQSxE9Aropmf5D6N3e9dnBZg2CrGwMXHQbmDFPD3LlCCntbKwFTmkpD/IsdffMUxVWnPHLBLpQhObXz8GlyhSZb/ekLN2fSos3JU3JmCqwr7NxUY0Ue3s7PT3il+1dA2Yr2WK2Z9EuUdblVn6Al1johEpmeepWIFf8MGC/IISracYWaKc/NXKgEJwPHnyhMBAxhIBz+ad2tmgnK2oVQISoTANn4jdqneylqIVJmQ2pEpZ1dUlo5f/+r/80wfV08kw4EV/8rNqt2/MI21RdyRtelgV4KEEvaRJUB5KaPKgBEuZ7Py0gMaOSJKTYkF7TPoc+ehaxQo5UoShrqwdliahBX9h3iIdFUvi3/bcIoKk4Nz0bBb8pIQTc23ff3wvpu3jFNOlsFTKHS8tESw7IJBp+GlUtGLSLfmczuOr+al0MY3+W8clKXxG/GOIBjAfP9zJCensxV2dmiuVaEpAfOzLRYvhrMDk1HuOHNZkMLcSzFv3C3OVuDk0VXVihr5h7yPj3wRsQ98wN6mPpKulp/pMKwznMdtYvS4pPlORCfDd27klucL5FzBFr3ggDeuYUDmQibxUxKkocNNLIDBLdcnVsQhq0UIk7W99J1fXetKUTQ/xuz8+QVyleEu9+NxT3d3qCQV6avFLFqQB8x3mm6ESAaCGYCjt+SWBQcTti8g+LTRnAkso0fmj57CfQDrMOsVhYB9gcsbOVeSKYlKsJpKiXNbWS1KmAGQ1Je2YlY+8Ba0wSlrE4oE4YjL8MEPfJ8QFBjLCU4hrGdgfTTaM8WnQ6ejhQxxJNVU0DUo4mE7JQ4RNiryum8PDIR3Tq6g3YEoam9lCsX4+1iIh6U25e7S/tOCjgL9iYGCoNFe5cJ8hOsNCUDgQDYuf6y/r6AVSG1JLK0+sKlYJB862H7dq5eGFlq4BDqbGf4KfL1zErou6oahQ1wICxm97JknE8oCYOE/vGA5QrJhHTwVEAVaQmtAHGHpyn3aMNlxedEwcYc46uL+3dwqDpYZ3iXMaXQMcTI2uUivxyILTkIsg1bslZwSrmhq/vZkqkZ3RhDVNsMeyrqWqzrmGtn73zc5ftw9bDXdO8QSTc36nM7kDPABl/KePGVNYuh8zSqc0Ycv4/bY0iZjR5BngjCE8UvQnMwa3tPvm/TVTDXAwNdMHw7vFNcA1YFkaMN88U8vSI+8t1wDXwAzXAAfTGf4F4LfPNcA1YBwNcDA1jh65FK4BroEZrgEOpjP8C8Bvn2uAa8A4GuBgahw9cilcA1wDM1wDHExn+BeA3z7XANeAcTTAwdQ4euRSuAa4Bma4BjiYzvAvAL99rgGuAeNogIOpcfTIpXANcA3McA1wMJ3hXwB++1wDXAPG0QAHU+PokUsxrgZsbK0jU3wcJOqFeEDf9vxiHGwhVn1OXhTk5OZg3Na5NK6BCWhA/WWdQGVexcQawD5IBDjaGruxkLOidWsr/zA3/MdSx1gN3sT9mbrmrn9sHvYoLTpa98N7yh0+bG1tyDZQIGi7a+9K8QlxjS7w3fzaUVpICGCux8jS+vKuvvbGblLoFehsZ28LGrrSszi0QBQ/5RowRANmDaar/f1DVZse9wwNVshkZ+XyKrl8xi4PuvLmRLL3Mrbc2LelGA/Y1V187R/mgsAa8q/d8wt95G5ejvMviVKeDg9jvw1sbdRwtgM701EecyZ2f16ITZhj0v0OfFvS1qB9hw/snwokxY1v/1i5URV7R4nzA5dcpdh2SbGF1HPKLaSwAZSdgwJMsV5fTUkby89proFJasCswRTbKce4uGje4Y+1Nf8+c6ZncOIrn7My/5Uxx9Pefndjw1vFCniaHh/sdxQ3R7GTh+DT3zv44wcnS08o9yIUXB3v6UW/nYWN57pl/R88sXe8dfXzVxW3Vha1BMd4rF6X+NnftWyfZW1jvWpdIoTk7qrqtJA3hP5b5lctXQPqEZM530lDTw8WWqY9vNA/YGPm/FhXV1oyGSLA0VFqb+/rIJ6MELOti+U+e7sHaPdgl12yPvXSe1LhH5j8x9VTDIHsxnOTl0kl/PThKdjRuvaww6Z7FfktuLp3cxGtwgmugXOoAbO2TKle7jqcDTDFistRzs6PxsUD/rAvyJOJSTdlHcQoj7JxQlMDMEK//3cuyrGj3JzVYcmLg0CHJ3unLgs+vrNSk//cllxwWzL2dGL7EBDljqATSui6+jc8nok3BOVZ9/RCSmPkvu0Dvosy1QcnTKoBywBTopLewcG89vY7sg+9lJKaLJV6OTis9PX7ua5WoDB7GxtfsRhXsZNdmUwmH1DbZQLOiZ1KRKJIZ+eBoeFSWRe6NDEhpq/V0dz96yf5Z3IaLn8gDa0vvDT6xO4qFpVIlxAfl3pLsIh9c21Xc61M1z71E+s/2cPZ0dkOqCfXttkngk4kyqRHvrNUZ+y+v1eLU0iPKH6Ja8CIGrAkMCW3PTg8/J+y0pdnKxDhlogIFkxX+vnBzRo3evgvGxj479nyzZWjrLA7I6OuCA5m9Zjp5bVt2XJaAtR+NOcYPSXEMh/fe6Kj2c3ySrq6nj51El4IASc5/cvTL4hESg2/8/YbVZUVWtlMWXg2vxlDY4SnMDyftRTGqbJLKFl2bRyiW8A7tj9g3rLhGBsCgisW9iPLA5vxobdW0hJBKIyUw95cc2cK6xDARiM/fnBKsDPzd28fB5RTUYSYvzbSN9QVzgoHR4UyW+tlp/ZXN9fIBGw4VWY4aF7gJVwDU6+BUb+cqW/OOC0A6bDDEmR52NuLbNS3cE1IqABJweMkEgE6n0mehd3PafN2TC1ayBJ0UzxSiJp/Skh8LCGBRVJcgon64bxMzUZJLVtbWzRKPhRV2VbOCU0B1D9ckVNFPn5hbgglCZAUlwCyN/91AeLmKkYrG5Fa4bSQJXC/7CnozDUR1/xuDoukKMQWymvvTpl/cSTLDNQuz2uiBzIQ5l0UASQFSn72t2zCidja4itiVt+SGJbo1d44ih+bQbHSOM01YEoNWJ5lSrRT29ONqBFoHweHmm5lFiFOq+XyzysrTrS1YTM7mEjhzs6/i4uPcHae6+m5yMt7b2MDqY5NQz8uLyP0pvkL4BnIaW198bQ6w0aQfbXaP2Cpjw/4W/r6XjqdBzRHlVV+/uujo4GXjyckrjuUZQLvLRygZNxN03p65AMwNoFebJSJ3Jeuv801XeQSgJLlQf/L85qP76ior+jAtsn2YlHG6jBsp4wt6RE3f/vRXYS54FAtwI7QVzyQjsxN+Are+9MeKmp4iJIKAiP3zBHEhPz9X585sacKCZ6RqT6rbk4Eds9bE5F/qBZ7i46qY2Xl6Gy/8LKoxAUBgOYeef/Hzx60UrlJt757Ap7f4Fj31OXBOFAXOzznZ9dSBiKqoaKjIr8ZdFWxOgWq6Egd/Bgo7GrVPpgQdIOfcg0YrgFLBdOm3pGUdSsrf0dHCqa/P55DLFZ6/6VdXY+fyP10gSJGscrfj4Ip3Kk4CBv8BiDg/ezo76cVWcLR1haje5QgCHZn9jfT3FUAAEAASURBVKGuEScs6G+qq+CchbvARyxe7uOzo76erTUVdM6OChysZGxuvOV1oTuCZdCkaSKRs7s6gaHkRCPgkkVkSD7wzRkPP6eoVB+xxA7mIbH7AJ3U3TnQr3AZA99piWZzF96u9Al8vSEHuE8YAGqoteaOWThdcUM8m3IPA3n2eaHASmLhns6q2fFJ/kD/ENy4pG51cWvxsXoM+dPOD00/PxRugdW3JK24Pv74rsrD28robs9IrsIh6M/2TacFJfyUa8BYGhhjyGasZowup7Wvl8j0YVKaBEhKGFBIfJp+4lGGmOFdSpG6ww4F/8ayMoKktO7mKqUrFjy0kBL19XVwSJBDLtfi46OcpiS62pWqEzvZ0XbhwWSRlJaXnVIaoZquTMqjh4B5CzgGA2YcUSQl/ABEAnyAaSrhsvvSLr13dkicB5C0pU726d+yf/4oD0gKhsHBIVlHX2drT3+fAsHR24Pflbz5yM6s70tg6sIFjFwFqfcEHzHtACe4BiasAUu1TKlPUz44KliPIP7VISGxLq6wFp1VwR8ChQ5j+Ul1KTHESRkSuSsq6taICK1s0domF7y54RWtzOe2EABHOiCcT2lthXnuyYsCYbHC7kNWPNio/1M0MnFovD33CnImVXyCXe7fcB6RSYXAgQAabSGERTqz96ui0ITMmjNte74q0nSA9vcOwJ7FtH0qYWhwOGtrKeaDLbg0anBgeDpNqKX3yAlL0YClgqmnvTI/po6JpANGb48YFdAwymMIUU1phTSCy5piBYEpTQbzKXFRje5lKhMVfQOA3vTkfBIu19pVGwqrWi/rKASG0is0UZSWUALtyjsVfhvkY224/1dAJL1EiZA4T1jHcLz29QjT0WC67vmSp+5TVXHi3GjAYsHUQQWmquhTopsbQVL4QLdUVR5paWnp7SWO0ZdSZ/uJxRODAzwWWvHJkycQ4NL6oHpVHlitV82q0NldqbqOZnUQ5qqH0wmSIh312K8VCFLBDQrkQhx/0eUKf7H1hBxCNLJ/+mDNsV/PatUDAlYESXE1cWGgvQ4TGPP0wQD/NqYbaJWDwu6u/gJEoviHa+BcaMAiwRTj9zAnhScOn3ZV1AgZpqQE+aEFHaNSZNzs1M5BwjOuvxUqdydWA6DBrnFJMCvm6Nm+pD/IKyIEwvrEJQo35cZnDrBh8SgV88RuAblNpCLCVlhwZEwhK66L02PAojo8A0uvjtUlB74CDqa6lMPLp1oDFgmmFwcqcXNPgzLVCWoi8IoUfQGSwouKcLwePQ6NRPMxV1UXz1mZMnYEx+jJNnWejS5+Wr7+3gclEqW/9eONHzRMfbifNq2LQDZSdLoSTE/uqyJs3qrBONKeWCTFVUTVdYlCOcnTYp2YAuZG1aqAbJRJwMOeIt5Fo/ZsuV+4G3GwkkKkPZGoFMsDmlq4gnLDTwMDg6685nrC39bauvE/7xlel3POcA1YHpgu8/G5KSycPLb3Skvo8wOMgkaKPkb0rCN1TC8qUkdRK1Rl6lKBlDjV3g7XAfJJ0e7WmhrNKaRwmMoHYRWNTrC0svLzD7BRRb0kjOOVSjYxgbVQL78/jaBSRUELNRUxOiY9CU30yt6mTL9FCQLxZMU/Xf3EQiT+EQhSWcPlqjVzEzF38GCGKLJNA6KkiCwJRAHc7eEwVU0tJcsICHiCot2xHB8K4VFFl9Ac1hn44uUjOBVwTv7U1U3q7e1D5Li5jVolYPLCuYTprQFbL58As73DCwMCPEd8o9Xd8mQ36fl+fpg/eklgEHFiflddvatBndoJNExwU0zpCZY4Ib20rb8f3oB7o2NQi9wg8I5mMrG3DMmoC+vV3d6hsbcXoWKkCuDvgGoJFThekTOQ4eGJeVOYsVrc1dnc24sQCaokuknXR0U/HBeX1dTUPDIpi5W8fMVK6jTMOXakrU2Y9sgyG5eW+kji5voTmbAcE+cHZKwMW3J1LFlbGs5QZKf2ypWJEN2dfXMvVGQpAPUwCwCDfeQhwVt6xYPp1OqEzagZXodzICTeExXB3Fonh8KQomTnIMJCf/R26srakxYqRhLxmQHIS8U0ULx2MJb3C3VdclXs6luTQJ89rcw/pbUoEZ3mi4lSeAFgHsFHfz2AJNO4ef5Y4HnWkqCutl5q+VL+SRJA0uRZqUTI4ODgnl07JimQV585GrAMyxQrRbGPBHbiW2eKv6+uZgs/r6gAziLanu7hke4xl9iSYEB2PQbysD1ZZpbeVF62ZGR205qAABzkEibd33tEvYzmN9XVczw8IRlOg7+nzgYPEFZXZJ8Vfs5pmHICJyOmDH39Rg67tB2GzHn7qxH8QW+XXROLA2hLXgMALD0Li2BmKqaKYmIoUJWsn0Lu99X12+mN15a1Y6LB7BUhAERMA8UB/yk7ZqecAgJTlZDVj3muKEd/Nr9+DCgMgxrJ/2vXp8KkXXljAiYU7NtcbEQT1W5y7nXBLfDTGaUBnRBjDloYHD0zEbn3Z+UyeDC/rqpq6lVmntN+Yv7SIznHMLMTC/ShEKNy/EWVx3KP/yE+AdPniW+U8lOiQi7HSlRIq8I6JhQfBcz4MT9xIhdGLkxd4oGlnJgUsLuhQWtgCrVoK0MaTgB6aSoI4s2kkgFDSIRqbZCXnWyic/PpVRC//i8fSaAJ85XvEiApOl9wqA7xHIKSQECWn9BA4Q+e3Je5JjIh0x+QqslASnZ/UYgFTYCMmCSKEoqkkFl9prXwcB1bEWmwcXP94ucF+IW7EkCHTcoO6pH8//7je694MA2uA0yXwoFbO7mvOndX5eQXOomKVizOTz6n8/hqfipd8P8GaMA6LknhjZo2H/z8ghwdAx0l/cND+R0dRl9/D4pCbgCm/LuIRPAk1HZ3a8K65SoTYOcX5ipxc2iq6sQMfUEwavL3BaBEJApmLKbbY02TppouFvRhil7xQBrWMaENAayRkI9JongZ0EJKxGb4KRwXrspppihH0v7Wd3JZo5syG0j87o9PEFcp3iUvPvdUd7f2TDgDpXG2GaUBs7ZMJ/Ak8BuolMtxTKCugVWQjHW81XTeTwN7ZRQ2WHZ0/qhRBAqEYP5oZWELDkE5OZW19SKyBBoPsaakHbPykV2gFUYJf+GROhwxGX6Yoe8T4oL3KHwamHKqVbghhRjj06DT0cOHOJIaojTOQzUw3cCU3hgnLE4DGPVv35g3MDBUmtuo1aug9Y6wZgoOOBni5/rLOnqxyIBWNkMKY1Wuefhktv241ZAqnIdrgGqAgylVBSfOvQYKRvtPDe8QMJSmzRpeS8AZHRNHSrIO7u/tVU8PE7DxU64BrRqYbj5TrTfJC7kGDNGAvb0DJlkMWw13dnSYOGBoSPc4j5lrgFumZv6AePdMp4G+vl4cpmuPtzS9NDCh5Sumlwr43XANcA1wDUxeAxxMJ69DLoFrgGuAa8CKgyn/EnANcA1wDRhBAxxMjaBELoJrgGuAa4CDKf8OcA1wDXANGEEDHEyNoEQugmuAa4BrgIMp/w5wDXANcA0YQQMcTI2gRC6Ca4BrgGuAgyn/DnANcA1wDRhBAxxMjaBELoJrgGuAa4CDKf8OcA1wDXANGEEDHEyNoEQugmuAa4BrgC90MuXfAexBjR2oOgcGKlRbRk95kzOjAQeJyGNkWX55V197Yze5aa9AZ2y3Bxqr7utZWNpCNRQa74ndZVrrZZPZTcBC7x3d1ny4Do4irAiOS+x34FzdIAfTMTQ/z9MzRapv73haP7+jfW9jIz2lxJOJSYESCTZMvYfZoY9e5cSENZA4P3DJVYotm7Bn9abnDhI51/5+LnZIBf35Pw7XlAh3lp5wW+ZQEQtgk/248rNqf/rolDl0ycR9oA/3s79lY6NGtI5dy8h+kex3wMS9os1xMLX6V8YcT3v73Y0NbxUXU71QYoGX92p/5Z7JtFArsa9RrBVMtTJPj8L10dFLvX2wxzW7k+v0uLUJ3AV2n8beq6i46fmD1FLWJQcbYf3miUxc3fNV0cm9VbrYZk75bc8vdnSyw645P7x3wkLvmoOpFXYzxYajvg5irY+wua8X+4+yl6T2yh3cBOUNOtZmb+nr8xaLW0cLYQVaLu0ndoQ2HGx17ktqubc2gZ5LXB2IUUz8DPolgJMwS5gNAfVXwd5YcFxgmN8tG/WFHKOWhVzGxoi2IhtXD+0/Q4u4CQ6mYzymjWVlOFimTxcsBIIMDg9fd2A/W66L/v3xHF2XeDnXgOEawF6tG+7/1XB+zmliDVgMmDqLRL5isaeDQ2f/QFNvT2PvGCuie9jbY0Pm5t7eCrl8iNm/3sT6NbA5kY1NgqtrfU8PDlSxtbaOc3XtHhwsk8mwVadWIRKRKNLZeWBouFTW1Ts4xi5yQP9giQQbX5+VyQZ0CNTayrQsxJ7SiFw5Ott1tvVix2lZu97vkrWVV4Czh79zY0VHa8MU7nprLFVjv+7AaGnNmTZ5p8KARZguONajpVbWUifT1QTsQd8wt86WnoYK7Nei/ftG6sJ49AlxheoaqzrBr0vgzCy3ADANcXK6Jyo61X1UFEg2MPBlZeX/zpYLHhtg6NaIiEsCg+xt1FlfO+vrXy0qZBHnzsioK4KD2bqZXl7bli2nJXnt7Y/mHKOn4yXQ22eSZ7G1Tre3P5Z7nC0B/e7cecC4nNbWWVIpeo4SbCL9bsmZ19MzyGlNd/cDR490DQywFZf5+N4THe1qZ0cLS7q6nj51smEEiGkhIS7wD7grKgp+DFpe1Nn5zKmTTaPfRjeFhV8XGgqeS/bshtFNmed7ef05MQmnj+QcK+zoADHH0/PZ0bcG4azqUH3N7l1UAiVuv2N9aFg4Od2za8cv27fRSyYj4ub6L7smVuykVh2axgbXe74syj9UK+iGk5vDpfekegcrNpEml/BiO7r97L4tat86hur3vrpCUPHGP89nS75+I6c8r4mU/PbFJc5SB/bq/IsjcdCS3N2VOz8toKcgzr8xAWEWtiR3V+XuLwrZEtzR3f9YhpLa0jb/CCm5lLOjorurf8ElSuGVRS1fvXrUSv1srWxsrVfelBg7x8/GRnmDqIiNuL9963h/r/D1jDfQ5fenkdA5kQ/YPfxj2cHvS8gp/bvuqQVSHwm8xv/566ih20W/nRWd5oMv1+v3/kKYL7gtOW6OH60Iwi/c7aG3VtIS5C189NQBemrmhBpxzLOj3g4Ob6RnCJAUXUWy0QpfX0Gf3e3t354z96rgEBZJwbPc1/f9ufNg21J+OwZqaSFLiBn0YcsNpMU2tugDe7DYR4U4jHRjtrs7gU6U404REKOn8OdeFhRE+fGV/1NC4mMJCQJpMFE/nJcJY5ZyEuLh2LiHYmNZJEV5jIvLB/My8ZdlBg8axaH+VY1cxi2QcpHqCiXY6ixNO88Wgra3t4d48rGzHwVnAs4pOgWSXnBrEkVSavLDlAtL8hI0iiSk255bBCsMHaaXQGesCrvuD3PZEkrrIqBBeslWpKZpIUuI7NSvPVKO7B+AHXuIJULt0U5SJEXd2StCKJLiNDjGIzTOk7bl7C6+/YUl8fP8WSRVsMV6APGplgg/MO7WZxexSIpyVJy3JuLqRzKoTELYi/EdsbYTq39upBwvHpSzzYnsxsAfWw1tCNoyq1PhDZtV59CZS4OUNubuhgbYoWflcjyQUIkE5QAaQW/viY6BoYfC3LbWDUVF1XI5hrcwVFf5+Xs5ONwRGfVKofKdD+vv4/IyUn3T/AWADJiHL57OowL7h4YoPQHiSGvLuixlss7Ls9PQuh4hMOUez82FcfDcrBSCRB+UliAx4P9SUn3E4nmeXpvKy0n11f4BS318QCOo9dLpPJjP6DnuDlF1VHw8IXHdoSyKEYBLkofQNzT0bN4p3KCrSHTLiDZQ68HYuImF4A81N1+zfx/pD1oE+kP+jQfV5oPJnCoYk1bkN6MnVcXqFKiiI3WwoVDY1dpDOkn/Lro8mtBHfi4/tb8aA3zgVEi8Z+bFEQN9ox43BrMX35WCv+AvPFy3d3NRV3uvb4grCl3cxUCW5EVBZGfpvp6Bd/6w22oEIeesDgd+ocqW1481VnfSdmEeUhrGGhHrHehC8pxgPx7+SflVBFtf96hRCEp+/ST/4HcK6w9gdP1j86gorQSsbJifiQsCSU/wZdj2wan+vsG1d6cAyGLSfc+OaAx1L7wtGTEfEM21XeBBh52l4vN/Ex+W6AW1rF6X+M2b6oEUDFgCgtXFrT9/nNfV2hue7AVLE4WB0e4Rs7xLT2hJCtTaQ7Zw24en7MXKlwcQHNKQ4bT59aOUZ7B/1HNRP1yVZ6axspN8B6rNIA3O3MF0lirHc0NRIRntwuWHUe0/C0YNhaD9WFfXxd7eIE61t/3xuPJ7gBg6OGNdXEOdnIAsAFAyvMXvHwd5ZmRUCydAR7/6S08f58SIgaEh4v1Edda9oFXaybY2oD8ulctksDHRn88rKnC6o74eQ2/6zoDxiNE9yuFLvTP7ENEG6G+qq+BNhtcCyLvcxwe1SCu3RyrHd38+kXuiTQE3gGBow1/smCyVoiH8RdOE2fC/wEqqqN4RHaLDtMRwOZPnrCpuxSGQs33TaUEJPSXja8ANHaf3dg8UH6vHQXkIAdgloXYgHR1Q15/t+O/zWWQ0jfxWAqbgJ65JEJBGqss6euUd2gPuvXIlj9xVydAj79fFTKT1yPpxgEaeKSnR8/d0Vi3wCDdIwLS5RlZ4pA788G+6ejpKR+Y44BTmZ2CUFAQcqR8/o3zr4/UDj8QdLy2BfyM82dvN25EkeAEuPf0VifEdzd1f/PMICHzO5DQAtYlZCs/JxMB0oG8QBxE4DF+tjTVO9WhD8+Fq/Q4Qgab/O4aZbfoOCVpEzISU+GnYoQLO81SjftikgkufVZwlJYluboJL5nBKc6oQLkN/aBIVIajDAXMHYFGCAdkFAi/q5qpKciPs/IIkN8WvBS8PgqSEAX8JUoNIc/eghSYgamuq29vbyNGkbXbDVPeB2OwOErsxR5dxcxWOPPgEd385yjUJUKsoaMElQC0QZ6o7PAH5HU2KmWDIoCJxpE6VeU6sY5icRCZSYgnx03+Eyf8w28klODoIAcOTEPQSOYWVKht5ZwCmiW1OymfsX3O3TAEExGH6Wlr6r/V1x1paTra3E9ARPDPYnqRkQ7rQiUPGzrga7eICd4Gg4jk/7R1U2sg9I0F5asn2DCle2rTzIU4KDwY+CCjBd0FowV/cICkhPlDQcAUIePI6lCX+Y72fBBUnefr1li8nKWGS1WFnITCCsSSsy+KcBhhTCLYQo08gmXgMwXn/6+chr5O9ikJy6h/hBuuMvWQONA0cDQ0M2djb0lNiANIxtceIpYkOX8v4f0n/qYvYP1x6Yk8VCjG/gFyiLgJyir/15e0Eat08HWfmDFeqChDmDqZfVlbM9fREaAWYAucgDnQag8ofamo2lZexWT7BEiWYEvONvUlKu4iEnnt66RwS1D9LboeMndEfWk76FqK6QZzqukcamKKGvOaLhxr71IFwDu/dlE3/8P5JDEthVGK8jMALDrQO2+rIT2UYztOewBtA4znEv0kvsQTCVuypmdBwj5KekIwM6nMcHFRE8emLAZ5fwkbfDZr9FzsrfyxuXsrghGYuFLV83X2dOJiaO5jCs/nQsaPw7t0cFp7g5kbMNEAGnIkp7tKHjx2jXwLisID/7o7sQ7RQQGC1EUGJBZ3aqGyGJ0+eQGxNa88pEBNtgIfJhBHWGGVxCS8qzw3h0VHV7IoRsHrzkZ1p54WknRdKB+kIwmByN4yvnZ8pvfAUcRCh+v6dXF230aZaWkUXgzmXk7cF/B7wAuvqpxbfpeaXSVWi+m7qEqYoN4RHX32zv2buYEoUiDgJ5hHhh50kla4NCFwyEtGOd3WDi5CEbsBW1a2I3QNtkZtp9mqfSAcr5Mqka3gDxrxHGv7CNAdBY/AAkJJaRlFDKtRVQDaTZ+pmZ472l+CODD9FlAOJojjgNiUhbwz8UT1lWfDeLcVkLAz7CyijSOKxVQSXDRduQZywKJHnhHs05AYRd8JyTbg7pEkIzE/kV5G7bq1Xv92Ju1YTOiUu0+q7pPm4LQNMSb/xFgSq4gBu3hAahsIoF2cKpmVdMhJywZJ3CItr3qquEpLKY/4TzDF5idwCHKNjRuERoYKRjleLZvIp0h6InNoe9VsH88pIIV5IbPJ/0EiqmS7VDQ4rvL26fA6CWpdcdmV0dAwp3L1755FsnTaRoOJUnGJqJtLjcSB9kgxjvQOdyUJEaA6OVIziYb0Cc8FpYAeGVL5vO4exf1ZDI+NuSDZkIr+BHTCcDUF8kjSKNK+6keWX9NRta1QCZVCsR3tTNcvpE6L00bc3q79LfT0KVwOyTVlO0CRlTVBIT8kb3JCMBVrFQOLqa2/wDwgkzD/98H1hYb6BFcfLRoeD461oIn6t2fVImSTN05EvTvepAsR3RynyhzQ/mjYa4UHCEAgav9KsaCYlp9rbgY/oDGYraYV+eD+Q3k17W9ypSHX0E4sFeHqlauoXi8iNqlVaUqSKHADygfL1r5hFJ79iuoSqks7/gYFBUncPcniPJLHpZJ2aC1qD+FWFiug8PnR0D7rspGLCEhym89cq08sUHMxHEb/W+NCVonxDla8rDRZ1QXuTEqF8gpV4pL429VR+Vg1p5PzfJGhtjb3Bs3nNhGfOqjCWGbdJfK+Yj6tIbFJ9ZG2KDF9om1j9pBj5Vfq9zCSxzNVTaeqqhBnhP+bdeXv7kMPTS5mZYAS5GiLUvz2NS2ZR8HbGHCS9L/T2JoNTGEEZHh6PxsWTzh1tUf4ScAoT9XCL4qkj+v9iSiqNrsDUwvxLTCvamDlf6y2VdSmGcpjLf39MLKbzAxdQhY6FtVbRXwh3BMCOHsQ/BSORlmiFQv0ycbWzvx9zDUCgb5jQBT8y8SDjFO6Op5KSP1+4KEKV0gC290pKiExoA+5m9Aqcd0ZFzfFQpLzA63qE0R7mmBJmTG1ACipoZK3+PXW2fquTjgD+mpSMJvC6gupoEIwINJO/MJTufW3FlQ+nI+OHoCoMTyRjJiwIQA8xMmUNNPhPiUGavjIMk6aUDlZrK1hzi6+MwfzRS++drXlfmK5OChddFpWQGQAoQSwLh9YgD+QTr4Ji1sCaCIyjCbPANENdRMzIgeW5iHxbO3Wh1jeEZt8EJSW5jfAgoxDtYvIrGcXjFH1IWRqM1fBufXYhrYIgPhnd444uWZ+Kyf64BHC8+tE5hGfv5mLKDILmz19232wIxFsKOr/8Pi0aY2u11SsGXnhMmBnhH+4GBwLqkrZYNnOmhaa4ufUVSITkUJIfimAU+9vGVBysuMx2+LXCwlfT0jHdCBM0MWOS2HEEccBGTll+QiMrgDhh1wQE4CCFmBcwsQlCqA7HLmBI0BAs328WL6GFDx47Sqa60xJDiG+qqwGF6R4euEfShEAnrBBMXjjQ1Ij1WIGh/5ydRkb9hAE0FitgmavkciRRQc+AQrx46CU4Z+lriRZS4tf6+tsjIlEFxi+aoOUX7NpJafMh8F3ClEoc6BIyMdlIffaPZcTTR3qLjKJtH55cc8csVMEkVBzEi6r/XjB2ri1tR8oUAHHVukTKjKnuWnPas7eVk+memRdH4iD8eQdqtn+cR+uuuCE+aaFyiEoLY9L9cJBTdOy1e36hlwwntr534oY/ZSLzlOAp5KAuefGDIKdU2i+bTl/xYBquIhFq/cvLWW3A61qQXUs5QRz75ey8iyLwGkBYD/Oa6CXYnjTRlRZSYveXRTf8aR5Oo1J9cJDyjpaeD57YS3kmRtjaKF9CqD484piamJwxa5m7ZYq0ULpsKEVSYMEnZ8sxRVJwe0hQv+VQ1ubKSoKbgFGKpHA4flhaKuAnp1hWCgkAP9fV0jlRKNczJ5K40EgTWgUy8Rut1xWF5MtKRNHgD2mUjpeYkZNSDmo9cSL3HwX5mPhEiqhOoKVvqqoEgalnTp16v7SEaoNUAc9dh7PZMT4pfy7vFPtyQq3NVZVUaZqdQS3khv82+xDeRobMgGJVKvitkg5M6V+gZ115O0VMiqSYD7rr84IsjdU6kEP6/hP7qLFJUQadxPxLZFNp7e1Xrx7B3FPMiWJvkB0Cs7WyfyxFtgDAaBSz4NtDvw1sTQ2aShAQ9H6Ji5aVDafEu3/cXXC4jlTBDdJ7xLAdgMg2goRcTJSiy2tRTixrjZWwWU7QeBVhQi0UTstBY1JszRnhdDXKAAKW8icvZGFFGNpnxVW2xyy3wbSdnZ2zKvkad3oiN8fgquNmtI5Lyhh3JZNXwPgRkyDd7O3wg0QMGnDAAp9mdzCkxSgVkSj4EIGw4McYWZPNokvc7OzglHARidr6+6ETMk1W6x3hqx/o6BiCJfgGB2Fx61EF9BYgkYATk68w8GfhT6tkyyscWU8Pw1X47xBlwqJEzbUyXWBH7g4xfe8gF6zChx85kqWaarpoJrzl3b7WHsN94euEJV1s7Wwwgaq5potOkNVkx3SGgEgplsSHHjAvfhTwjeaG/wHL+kHVDWc76DtpNIspzuITkm64cR1p6eiR7K83fzF1rVoGmE7d/XPJXANcA9NYA1defV3q7HTcICbYvvjcUz1MBovR79rch/lGv2EukGuAa2DmaCAiMorcbPahg1OKpGiFg+nM+V7xO+UamFkawCK9rq6KtY1glm7/6cepvnk+zJ9qDXP5XANcA+dMAwBTGxubvr5euY4Z2EbsmbmnRhnxVrkorgGugZmmgQ7VGmkmuHE+zDeBknkTXANcA9NfAxxMp/8z5nfINcA1YAINcDA1gZJ5E1wDXAPTXwMcTKf/M+Z3yDXANWACDXAwNYGSeRNcA1wD018DHEyn/zPmd8g1wDVgAg1wMDWBknkTXANcA9NfAxxMp/8z5nfINcA1YAINcDA1gZJ5E1wDXAPTXwMcTKf/M+Z3yDXANWACDXAwNYGSeRNcA1wD018DHEyn/zPmd8g1wDVgAg3whU5MoGTehBYN+Ekdov2ccOFgcSu2pdbCMf4i7Fbr7+4Q5CG2FymshNrW3jMj27RpSnJysI32V7ReWCPr7lPuAaPJZsqSuZFSBzsbPX02ZWd4WxPQwEwE00sDgyQixY13DvR/Xz1qH3AURjg7z/P0AoHtTk+3t09Ap7yKIRpYnuB1WYYvOIvrZHVtvYZU0c8zJ1J636owsZ16sFVY0/WXL4u01koLdwMzLr28tTS7pE0rj4kLH7ow3NbGOr+666mvtPfZxP3hzY1XAzMRTG+PjKT70GFzecEuoalS93Xh4dDjFxW2HEzH+306V/xuEtGjF0VYYxOrkU//oGI3txbZdNv4S3l7/J9ZamAmgin7IG4Nj3gs9zhbwmlL1MCqWd4ESfcUtGzcU9XZM6D/LjC0HxzZcLWnX72Jpv4q/CrXgH4NzHQwTXV3x4722Ahav5r4VTPXQJCHI+nhZwdrxkRScB4pbb/hjSnc9dfM1cW7NxUaUDuYpkK6sWQ6i0Sz3d1d7OyIQEdbW5z6isVGkU8G9YaIQnwDjSa5SdG6h729/irYZXqWVEo7aWttnejmBocs3XNcszo8uclSabyrm4OtreZVsy2Bp29WiCsO1l+p2VuRrXVCkAvYQGhe1Syxs7WJD3RGWMZNonzumjy0xM1RYRZgl/Wmzj5aaEQiwkcCn+yYPcGNhXg5Lohx95c6jNm6l4t9ZrS7j+sYX6Qx5XAGM9GA+VqmQJbNixZDTQeaGhd4eRN9fVha2jUwcH9MDDnd1dDwf6fzEAkG+oAZgHWqve13OUKLA1/x/y1YKLW3x+byNx48QFW/o75+ha8vhPuJxXU9PbRck0hwc7s2JDTDwwNN0KuDw8O7GxpeLSzoG1IPFd+dOy9YIslpbQWSEubjra3vlpx5PT2DnNZ0dz9w9AjugsoBsczH957oaFfV2wIl2OD+6VMnG3T06i9PvyAaiaGB852336iqrGClTYC+Y0XIeYmKsNtv/pVDxr9EyLJ4z7vPDwX93JbiU1WdpPCu80JXJHqC/u07J/58eXSYt9IqRMkvp5re3SHsDGDxT5dGJga5kOr4e6Kio7ypm54KiFh/50fWhEsZDO0dGNrwU/nh0ZGijAi3318cydbFw/nsgTRaglae//oMPQXx2s2J3qPB62/flRw/28HygKaSEZ4Chi6McccLg/CUN8qf+qpYMwHA3cnuD2sjw70l9AsCZP/2WP0n+4URTshJD3d78MJwh5GUA5zi7v72bQmRz/9argbM1zKlPaNICi3fGhFBkRSny3x84t0Uuw/2Dg4Cs0DAbPR2EBoFKe7uQFJc3dPQgL/083F5GaFvDAunhVqJxd7e8zw9WSQFG06Bxe/NnefJtOhgo+g4TFfKDE/CvzLm0NMAR8fLgoJoK/iN/ikh8bGEBBZJcTXS2fnDeZlxrq6UkyWw7SIsXPKhqMoyjJeGUQkUIAdbFzlGpFAkUr9F7FX0i9fFsUiKiucneV0+x4+VACR9fV0ii6S4Cvv0kjRFKF/zc9U8/2eujmGRFDzAnd+tibg605/lF9nS7whbrKZJgpT63MpKgreujTV7aPKAn0q+ZUnQkjgPiqS4FOYtefzSKFYmaNzOG7ckwXqFrugH9KXpvs9fE0tLCHFekhdglyIpCkHjncS2IqjCTy1CA+ZrmVL1wZR78uSJRV7eQFIUwh586uTJnqHBl1JSgShzPTxJzP3rqqp0Dw8wXBgQsLFMiZJEyJqAQEJ8VzPKTKjt7j7U3AyUPN/P74PSkpY+fSNE2cDAlqrKfY2N6A9MUQAogleo6CMW3xwW/kphAWmC/EUnH8/NhTXz3KwUAqOQv7ex8f9SUsGP1KtN5eWEc7V/wFIfH9Bo/aX/b+9LwOIqsv3D1kCHfWnWLGwJCcRsaIzGXWdGHRPNRJ3Ryajz6Yyab+I6o89ZXnzP5f/U94zbvHEZlxjNOPM0xn2ZRY2J0axKQiAQIOwQoGloGpot/9/tc7sobjdNA03opk9/92vOrTp1btXv0r9bdepU3aJDh0wmRBp8LznllpwcFLxvft51X+86gU6OV37Qy9tbYdq0vabd0reqIOnyAoVGVy5N2rq7QdQXhBIXoYzT27v6HtpWVtXcBeoBMzod7IOar1ymMCZa/PrO2k8LmzEvj5H+rRfNAimvOS1le3GriKNCR/UXLxTShe5dmQUuQ6lf/llNQbq1VxtAeu+Ww6Ehigvl9OyYq5enUlkX3/GRuuMdPRs/qKhq6UJ3FdFUoLw5KdMTbelUEA25y96cHUeMm7+sMZp7Mwx6tBHFs5On4wGDDjspo/gN56iPUqC0bW8jHmM/P3cG2uiiGpzlEwiM8Gz3hjZ8WF9Xa7G8aR/JFra17W5twXe52Yzqpen1VMk9rS3gO8g/tFMnpcPBekaCMoDFwBnsSYni++WKcpJ/PEsZzA732XLs2JodX4IBKzs7aVDfYrX+d/FhECuKnJek7WSheghTxWAf+lAAt/61qgpXh2MBp+ic0oVQN4zuIXf19//im6+/a2uDJuRttTVvVVcjHcx7no1qSd/bviuPd2GYDHaz9PRv2VkHokQN9bqgcJ3q80W3dqUtmBQ0d+erRRVNFvgQ9leaHni71Glb1v8gg9JBu+/sbcRoGvH8O48Yn/7kGKXfeN5MURCmTJZeOqy2SfmBE4MpSHecqW8x99YZu3GAIoUdFwKufsemIkT+9/QNoBrv7VdHNnD+ilLXnplGzuIPDjQ9+VFFq7kXj77yJss9W9Tn69qzBgcily4y4KmAsl+WtP7lqzo00NjZC2dCTWu3MMiCjyLgA2R63OY37Dtxglis0e5GNNo6kpF21yH+g9+1ReBjvIxpHHE/zjYYqG/4do1CT5pPhdkM4kMieq9igkujg9P23l7H7iGuSL4F9CUx3SSXarKqvw1wLtKpqkIIs88vLYyJpYhXdKU1XtS37LWFjmyZ5MbGBpOpjQ6LZdJCEbbuGeyBomIHqlTnY1K0OqliiNbReLak3ixPsiM0HR1VTbtAwWmxyqQi/JJwd8q5u0qN5KbMSlKfnXLuxMlYnUUhq3SJPeXKvwo+8qzRirnKeAjMjpAsW6b6hfYWViteZlAtPKqUisUCJLz5zRDotg1FUjXBf3wKAR8Y5lvt0zvd/f2gHgzwCWGcQphuJ1PI79XVUgfzstQ0okgkrkxT+gXo8WGyCILj58Xy8seXLAHhrpkxAxNcjgqUgl7kZWlpp8bFY4KePLBIJyokoc9eT5xabUHjEKiScOlCVk5tlSdyx+nM6So1/DI7m5wYNq0hXzmRg50gkfHHpx4X8iQKYD356q0dapB8VDi4Q+mlpsYo5IhPcZ0yjJA/6LstmjXEIzwrQe2wwy/52rrFsv8RBcmliG4vhtWeWn4q18epTH1tkdVi789G2oIHKD0yTPkRoXqbh6kzcrFwltZZYQYfp2Be9I6pOH0T7copLPscAj5ApmKuHIM44Ntr5yz0VXEqiAkyJusxm485qDMTE8F9GC+D+DCTg6x/NDYIOziVP4fbTVgHBc5aM2PmX46pw0lZATK6uuSi1aSLU7kaSNRUUjwPRDoVnKlXlofTR/CyPUH9q5mY0uRO7mmLnT2pGuAIEkQ3PTVWnQzEYFZTVQyHNSnyXJZTjyrpY1m9yaLt1WpMeepUs4aqzx61QcyOq8AdLEjfRZ2j7OQbpVd+cXAaaGrY5oCPRoFPvR8BHyDTUYG4taYGZApqQ7ARnK0Xp6iTDNtqalzYgef0QdtMEbqxGr5DKfCyYFLEA4CXm6zWLpt/FmEAmIOCToAL68NnKTPltg9m2OAXdqooiNhp7oQnumzYiWkqew5XDZGNSAEHHZGp5gg0Pjvc8v4+58OIgWnwip4kJkW16PntUPPBBFFnOI7h+hzMGCo1mtTNB2wdgKF5tjMtFk5UOMnbEZhqZLqruRk9UPTyMCQHmV6SqpApYkgx++TiVuxtbQWXYS4LXgLHzin6udTxfKWiHDNRsh3aMEVOGZVcZXd3whtAc1mjKu5BZXt3X+np90kUqQlRGu0VsQcSFcHaeU1Z4UYU6SLydGDgBGbPRbo3C1gjAH7EMxF9VXfq3NHVFxaic4zHGnE5gDeDwHUjBLT/4r6OC3yj79fVXpE+A2uNvp+SQmNk191SavKLFeW/z8tHJ/RSG//KOMyerg7G/2WbixdZ6GvNHyYOVOi4FsQyVjgZhJPXdRHKvWXdbXp7GMOrm15sGloxdyxodMxWtbuHcWu9tIcTtrPTaI7qtK5N9QzSfndyWThG5VPIlU1q3zzTMOj90Oh44SkmmjCKx7MB0/TybJXTqoJ8EU8G5sUUVlP7YERBXrrijHLx+dXtdwUEqJOcLzz7jGWYcYwLC5w10QgMmYOe6IudHPvv2HfVu2NuLl3x04b6ES+98/hxuFyhhmgkjXJHr0o0i2KVeVvxwQBfzESJxFEJB00msD+KrJ2d4XQJKR4GmjgBsp+ckhoTG0eHXnK8jurqsnKTSf1hi+lm5KIDheBKWW20MsxieQ9K5aVFingpnCIm1LFnivgqiliC8zQ31Qm5oD5e2IPbV6ns0wiH6VXLU5ziI6+5QlgY6VBMrtC/bJglDELBYEhOTDTQoZMWiQgFFiYdgSlIpgjnxISSQBZh+ZqoI5ElC6A0jOLlFCGXdKhhOj+dPRtLm+AmA8EhlOqu3HlCZ2xCR28vVpqiLHrEfz5tGaa5yJ+AU0REbchf8NczV2Ta+8Vju4SbpQ7XqYghlJ2IDKvLH71mnphpcdOORg0+x/ds3k8MhB+9dh7NZWcnTd+wZo5Gk06f+LCChD+szgG/EP+CpzAbju0+X755IW2B6rTsiImwgyglOsQCJOzHLBJdzCC5MP7SZ9XUIcWaLkT100MCo5bU2LC1K9JeuWXRvSuzRfH3DzRRKALWQV2yyAB4cXUs2MXTReiw4KMITLVhPt0GLFX6zbz5JL9TW+PmvflHY+NNWdmOs+ffGo003Z8QGvrwwkWyNfK0yimjlbfV1iLcCmu3YPzRRYtRnHy+o7UzTn2E3yNYB79/sMz9EtMhGlTMRI/tEoigvGhBAoxg1dAzN+STh3E4U9goGqHvxDI/XZGGAxEC4yR0ca2Na7UL85FFW0STTq2xGysLhL6bApYGYN+AOy7OxAPjrNw4HC7aCCZ9bUftdWenwzi+SYDsoghyNSuGHUOe3awqq00oAt7bMxXBIzQQBgqUMnhqGyA7nQbFwk1CDWui9tnW7LsDIrpRr9lXedoup9rGH8y2o4crG0Hc1X8eOvivJmVFEz5i2pcqiUlnOV1U0h47RJnKN34Yv/3u28eKD8MgpYoYqbaeHnh7nU5MyT+nATF5NGh1LBK2MhFxlLaKTcPiSOxoR7bki4hW2O7A4LUGQRA3z7aLx/pXDomIVIpfKGvoxCYgdssCHiXhlS9q7n+rVIT0CyYFqx6q6dhRouzA4PgRl3bMEikyaCLRqSA0RUtJTaSLIDBK/7qsbd1LhXgg0Sm1keSalm5NQD6eFiBf2QJkLCSjFKcNyZkzl6zhW1mpYVtmIlJY8BIEAnLzC7ykKh6sBvYWQTATDP6tqurP5Uc9ZRnr8TOmTw8OCCw1d9DSJk9ZJjvRISEZERFY09XW2wtnBflwPXsJ19YwOJ2REJ6ZqG8x9xTVmuUfvOuC7uQiPjR/RiQ2Zymsau+0qk8OFwUxxs8y6PGqKLO1v6Gtu6q52ynRuLBw8rNA/Vh6gF34EJCAebzqli7HJa1UK0A926DPSAwHBWP9guuqrl5z9eIl6u/0tU0vFRePuvvs2j7negSBqTnMv3bWbEJHs7PJOCEDgU4Eh4pamXp7aX2qSDnJArqIWPOjWfbjqTqAQNGDc98a1o9i0z+x75/7BSdRE48fMOOI5IgaAmrsVIDDndpmZSsbOOBjbG1hJiUovPB7qpEpOo9XpKfT2nwQ03D7gXrhneAqMQJOEdDpQqOi1JiKbW+/6VSHE70BgalDpinh4dgAVGAK1+qfypxvTSR0WGAEvB+BzKxsqmRTU+NR/pf24hs2dXym2N8eu9wT1PA2/sfBwiNSgJQX3wKuGiPgCoHAwMAo7IB+YhoC9Xt61BVlrgpw3iQhMHXINDggIMu2wRKmbrBj3iThyZdlBBgBP0Vg6gzzsYlUSfuQTTD99JZysxkBRmAyEPDeONPJQIOvyQgwAozAGBFgMh0jcFyMEWAEGAEZASZTGQ2WGQFGgBEYIwJMpmMEjosxAowAIyAjwGQqo8EyI8AIMAJjRIDJdIzAcTFGgBFgBGQEmExlNFhmBBgBRmCMCDCZjhE4LsYIMAKMgIwAk6mMBsuMACPACIwRASbTMQLHxRgBRoARkBFgMpXRYJkRYAQYgTEiwGQ6RuC4GCPACDACMgJMpjIaLDMCjAAjMEYEps6uUWMEgIu5RACvYMJrlqHyVamR3lHsUt2tTF1wYHpcGN6ESi+eK641H+/ocVoSr43KSVGuXlLXibeYONU5mYl4LfOpWTG44uFac/MwdT6Z9eFreRUCTKajvh14J0p+tPKLqrFYth9vGnV5nypw3vwEelU9XsLc0OaBnYl/vDz18oJk+f2dW3bWvb2nwSkqSzKi6VXM//1++TdHR/H+KKfWxp+YHh9O9cHrmt/Zq75ddfxm2cLUQIDJdBT3cVl8/A2ZWbOnK30lfIrb26c8mVJLPfWNbt0VpyaTNbwmus/2/mhzd5+n7LMdRmASEWAydQv8pXFxt82ZawgLc0ublYZBYLWdSf/302NfHmkd0W+AoT29bnq4FyYPcx1OZgQmAQEmU7dA/15yCjEp3tP3cX39JampbhVjpaEIJETqkACK/Oxwy9Ac52d7yk3XPL3feR6nMgJehoCPkSne5IxRdrXF4ql3OAcHBs6Pimrs7saBWxMUEJAbFdXV31/R2XkCA1HpAxrdWlP916qqzr4+XyTToMCAvPRINOhIvdlFRy84KGBOSkRwYEBRbceIPUdYCwkKzE7WR4YFl9R3miwjvHorNESJHjne7ny6SQJ7jGKmQR8fqTsyUk0Cpk2bkRCOSTC8tr5+JEfw7MRwQ1TooZqOTuvkz4CNERcudlIQ8GoyDQwI+OCcc4HDG1XHjprNt2bnxOiUrg0+eP/obw7sr+vqolN8Q/nds8+BAOVNFRUiHcKzp56WrtcfMBp/+923lI73mOJtpvuNxlNiYkCgSETu80fLnlxaQKewvH7vHnOf6s77a9WxjSXFIFlokgLZcf39h/sfCg5WEX7uT0/XVFe51h8x96bzZ16QlwC1a5/ZT+NfKnLuvPibL5wF+YGtpQdrOijxlxfMOj8vHvKNz333uytyQAqUju+/H2x+/p/ayoAW/21VFhEuaX5X1V7ZPIiwKE7C3JSIOy/NiNGHiHRr38BTH1fuHjpTJKoh1GYmhL+xfok4feWLmg8ODJnHe+JneYlR6o0mtUfePXrgmPYFXwWZ0b/+YRYUMD0Fb+yZc2LxwCD9yuOWDW+WOgYAxE4P+c1lWRmJejEDhifmO/saX99RK+ojhJ+ckbZqaZLQRMjBy59Xi1wWGAENAr4RZ7oiIfG++XmCSdGGhNDQjUuWgkDl9oDmcIQHBcmJkKcHo78VEBky+LMPDVQavjg2VjDjotjYZwpOFaep4eGXp6cLO6ByYlKR4o4QFAR76kewqjsFh9NBaA5aTIesg2AjSgwOHgREZ5cf/nGuzKQoeGF+gpgIIjtg0ievy5OZFOmnzIxauSRJvpCQ1yxL+Y8r58hMiqzQ4MC7L8288vQUoQZBVENOlOWQoME6U7o+NAi0KB9ooFyE5OAgNfH6s9PPzo0TTIrc2Yn6+1Zla4qgOU9fn4/eq/xfAxmM+eBVczXKt1+cgTAGWTMxUnf3pQp384cRcIqAV/dMRY3T9HoMrh8qOnTQZEoKC9uQvwBkFxUSclZi4udNQzo1oog7Akbu9337LXozD5yykGj0xfKj248f/6+Fi+AhXRafsLmy0h07Xq6DXt7eCtOm7TXtlr5VBUmITEKFVy5N2rp7MCAJhBIXoTxs2rv6HtpWVtXcBeoBM+Ip5Ng6UPOVyxTGRLfu9Z21nxY29/YPnJYVc+tFs0DKa05L2V7cKuKonv1H1abtar/vjzfkw2CdsRvdRmG206qdzb93y+HQEOWJeHp2zNXLR3ZPY2iPbuPGDyqqWrrQXUX0Eoh1Tsp00J+IYMV177I3Z8cR4+Yva4zm3gyDHm1E8ezk6XjAoMNOtQIXL8+JhYzu/xMfVcB1mxIbeu/KbBgU1WaBEdAg4OSBr9HwktO7D+zf29pq7e+v6uz8z0MHqVYU7znmGha2tX3bZsRgv7KzE0bArXCJ1nd1/bNRCSEEX4/ZslcVrDzehWEy2M3S04+gThAlqqfXBYXr1C48urUrC5QeKMjxzleL4EkEieyvND3w9iDlyS1a/4MMOgXtItwSo2l4V3ceMT79yTFKv/G8mUK/p28AvlQ6gDDSe/pOiBQIjp7ZFnMvCBeHoEJhzakAC3dsKipr7MS1UI339qvP1/k2HzEVufbMNPTrIcOl8ORHFa3mXlSlvMlyz5ZiUlh71uBABF1dSnzy48qvy9qARk1L992bi2TXCinwNyMgEPANMgXZVZjNotKQ6Wc5zlilJqsy6YRPi1UJRzf2qBMjJIQ5uAtsuqP4amxsMJna6LBYFL6elM/WoSHxB6pU52NStNrPMkTrMEJH3UrqzR1S1CfW+aCjqqkzKDgtVgkRg18STlU5d1epkdyUWUl6OX2iZazOQtdYXGVPuRreb5AcryvmxkEBbLjpixqhCQHtLaxWvMygWnhUKSvTVn+4gL8uNQplzNrtLjeJUxYYAQ0CvjHMR29UU29Tb2+cThcVMq76W+2/wG7bzBK6vXSV7oHRTTRp6iZO//jU40KeRAGsJ1+9tUOdc48KB3covdTUGDV+trhu8IlFRdB3WzQrSi4+K0HtsGMs/Nq6xbJXEWrkuES3F8Nqxy6nbMeDMvW1hcEW+0LPyPDBfw/EG1D1Ng9TZ+Ri4SzWWaGfTo+WeqNV6UhLH8zpw/MgJbDICAwiMPjfNpjmfZLoM4qqDdgGjEEB4+pZ99pW4MBmn82a1X4q0sXlfFposbMntUKMVW2TcEpaamwoZRk7tbFNGA5TlviW57KcelRJE8vqTRZtr1YY8azQOrTaffZOqpiSgjtYkL6LOkfZyDchUu2ftndp2y5o2rP1Z2tTAwHfINOBaZouwtQA33OtcDJLNGj8xEjoCXARKTBYTJVEpnquxA3YPgi8f3+f89k/3K+TxqSoCz1Z1fo5+yPqDMcx4qicqShpjSbF26NtsKQ94CJPUmPRPxHwDTJ1596I/3PxyxGlMO8vZJ8W7F1nJda1T/rVa0KURttGjGepSLRe+/8g3IjCpog8HRg4gdlzke7NAnZ4wtgDTwH0VUesc7N9TQF1VOV28Wy+jAbLGgS0Px5Ntg+dYsESZqXAMnE6ddBKlUfYqU4MaE9ue25Zd5ter07FvLrpxSZbkMB4qmC2RxFh3Cov3cFinvGYrWtTJ+JovzvZFByj8inkyibVA5tpUDd80Sh45ykmmkCOeDYgeEuerXKsLZ7KmHqC2zTZ7koWOrlpEUJ2FNLS0n901U8ovc1o3PTyC446nDKFERiXz9HbcMGsFKq0IDpaHqxelpY2WfVMTkmNiY2jQ6/3APU0mdR4A+xNJxqFgHYEV4rTMQgwC/pAwby0SBEvhVPEtzv2TBFfRRFLcJ7mpjohF9QnWloWNYb6TESRfZXKRDwcplctT3FqX15zheAw6GB+f/HsQWBRdpltM1OnxZEYFR2TmGigY9bsjOHUOH2qIjClyPRIuxKpg4VSN2VnozcaEhiIDUp+numZVSvLExIuSk7GcWGyEvSOD1ZhUQq+xb58lDVB34fr1KWiCGUnIkuJCX30mnlipmVs14XP8T2b9xMD4UevnUfbkWQnTd+wZo5Tg098WEHpf1idc9mSJOJfcA1mw7Fw6OWbF9IWqE7LjpgIO2AxOmhWHUWwqF8kQmFEI44KL31WTR1SrOlCVD89JGAIe1SvXZH2yi2LEJMvSmGFK8kI6Z9v641C/5Fr5o3t0sIsC1MbgakzzMd92lJ17PQEZen66vQZOOjOYekUWHX8I31swSevZ4VxkOldufPoKn+rqvpz+VGSJ+4b4fcIZcfvHyxzv8R0iAZ1dPCNqhrb9jRctCABRuAWfOaGfPIwDmcBG0Uj9P2SRQaQ+E9XpOFAhMA4CV1ca+Na7cJ8ZNGWzKRTa+zGygKh76aAKFHsG3DHxZl4YJyVG4fDRRsREIatABATBvb89x/NcaEpXz1kqrjm5Uax7D4CvtEzdZxFpQnc/hP2KBhbi0va2zeWlMiNx34o6/ftbbNF48vKVEwECZA1MYXleDnYHHIl+Ro2WZiSc+R9pwbE5JGsMXoZW5nIATr4nWNx5Btf1ZEl+SKiFdCRP2LuW1bGMH/9K4dERCoYB5+yhk5sAkJlMd0kG0Hf7f63SkVIv2BSsCqCMXeUGGVlB3mIKU2uDJomS3MqNIdWDeu4VPsiCIwKYi3TupcK8UCiU2ojyVjghMeJbP/hbWVidSlpwusqIgE0aFDB7JzBjnzRoULZGsv+gEBAbn7BFGsnZpyyIyMjgoOxE75jgOoUaCyIDjvIZSbqW8w9RbVmDWWMs4GID82fEYndWQqr2t3ZdA5j/CyDHq+KMlv7G9q6q5q7BVmPsyYTVxzUj6UH2LwKnIh5vOqWruH2JETPNDclAn6PQ7UdI+4cePc9v422vc8GbP7wAxu6uoaslZi45rBlL0FgCpKplyDL1fArBDDGx46L1OQ93+za9vabftV8biwQ8I1hPt8qRsDLEZhr957Dn/PRh+97eW25ehOBAJPpRKDKNv0OgZw5udQlSScSAAAkcklEQVTmXV/tsNo30PE7FPy7wTzM9+/7z633EAI6XSgWaGDlbkd7u6cmGz1UNTZzkhCYUqFRJwkzvgwj4IBAT48Vh0MyJ/gRAjzM96ObzU1lBBiBiUOAyXTisGXLjAAj4EcIMJn60c3mpjICjMDEIcBkOnHYsmVGgBHwIwSYTP3oZnNTGQFGYOIQYDKdOGzZMiPACPgRAkymfnSzuamMACMwcQgwmU4ctmyZEWAE/AgBJlM/utncVEaAEZg4BJhMJw5btswIMAJ+hACTqR/dbG4qI8AITBwCTKYThy1bZgQYAT9CgDc68aObPYamYgt9vCYPBb8qNfb1u3rdiPvG8fpSvJsab7Ki14EU15rpdaeOFrDtP719uqSus6un31HhJKfgpX6n2l5QerjW3Nyhvin2JNeBL+e1CDCZunVr8KaQ/JiYcw1JM/X6pLAw68BAtaWzsM30bl1tn/wqJbeM+ZLSefMT6FWjeIleQ5sHdkX68fLUywuS5fcvbdlZ9/bQ9y8JgPBGa3qVHl6+9M3RNpE+WUJ6fDjV57Udte/sVd+ONVmV4et6GwJMpiPfkTid7vnTlk0PHoLVDL3+jITEn8ya9Z+HDha2Tf7vfORmeIEGunVXnKq+KBtvvaPnkLm7zwuqxlVgBMaLwBCCGK+xKVo+PDhYMGldV1e52RwYELA4NhZv7osKCXnwlIXX7/qq1fYC1CkKgMeatdrOpP/76bEvj7SO6DfA0J5eFzjcC+88VjM2xAiMGwEmU7cg7D9xYmtN9V+rqtp7e6kAmPThhYtyo6J0gYE/z8x6rPiwW4b8Wwmv+QQAoMjPDre4g8SectM1T+93R5N1GIFJR8DHZvPjQ0OXxsUZwsI8BVxwYOApMTFwg5LBoICAvOjozIgIvOtYXKLOYln95fYXjh4VTIqsrv7+h4oOkc786Gih7LUC3m98yswoHJhFcVFJvNx4fnok1CC4UBNZIUGB89IiTsuKidaHiMThhFDbpUd8Z/JwxUdMzzTo4UkYsSZoGN7zfMac2JSY0BFtzk4MR+swFTaiJiv4OQJe3TPFaPqDc87FHXqj6thRs/nW7JwYndK1wafZav3Ngf0YdNMpvqH87tnnQIDypooKkQ7h2VNPS9frDxiNv/3uW0qHDxROz/1GI5gUBIpE5D5/tOzJpQV0Csvr9+4x9ynuPMxhW/udTCU3dXejxwp9wcVkXHzj3b/Bdk/rc396uqa6SmSNTbjp/JkX5CWg7LXP7KfxL9k5d178zRfOgvzA1tKDNR2U+MsLZp2fFw/5xue++90VOSAFSsf33w82P/9PbWVAi/+2KisvPVKofVfVXtk8iLBIJ2FuSsSdl2bESBxq7Rt46uPK3UNnikQ1RHEQ2Rvrl4jTV76o+eBAkziF8MTP8hKj1BtN6Y+8e/TAsXZZB3JBZvSvf5gFAdNT4NAz58TigUE6lcctG94sdQwAiJ0e8pvLsjIS9eJZCdftO/saX99RqzGO05+ckbZqaZLQRMjBy59XO6pxCiNACLjqpHgPRisSEu+bnyeYFBVLCA3duGQpCFSuJHgNBwbgciJkeDyRHhky2HUKDVQaDr8n0kl5UWzsMwWnitPU8PDL09M1djSnmJgi/crOTk0WnQYFIV/9CFZ1qulmIjqVqC8dchEEG1FicPAgIDq7/PCPc2UmRcEL8xPERBDZAZM+eV2ezKRIR/905ZIk+UJCXrMs5T+unCMzKbJCgwPvvjTzytNThBoEUQ05UZZDHLrA+tAg0KJ8oIFyEZKDg9TE689OPzs3TjApcmcn6u9bla0pguY8fX0+eq/2e67kQwZjPnjVXI3y7RdnIIxB1kyM1N19qcLd/GEEnCLg1T1TUeM0vb6zrw/D6oMmE7qBG/IXgOww+XNWYuLnTUM6NaKIOwL6lfd9+y16Mw+cspBo8cXyo9uPH/+vhYvgSVgWn7C5stKFnXMMKtGgV+tCbdKz0MvbW2HatL2m3dK3qiAJkUmo0sqlSVt3N4i6gVDiIpSHTXtX30Pbyqqau0A9YEang31Q85XLFMZEt+71nbWfFjb39g9gLHzrRbNAymtOS9le3CriqJ79R9Wm7Wq/74835MNgnbEb3UZx6U6rdjb/3i2HQ0OUJ+Lp2TFXL08VmsMJ8ZE6dBs3flBR1dKF7iqil0Csc1Kmg/5EBCuue5e9OTuOGDd/WWM092YY9GgjimcnT8cDBh12ugS4eHlOLGR0/5/4qAKu25TY0HtXZsPgcHXgdEbAyQPfO0G5+8D+va2tGG5XdXYiGokqmR8dM57aIqTp2zYjBvvUtQS3Yoqpvqvrn41KCCH42oVxsO2NWUo/BaXeqql2oTnpWZXHuzBMBrtZevoR1AmiRJX0uqBwnUJY+KBbu7JAeTCAHO98taiiyQIS2V9peuDtQcqzKapf63+QQRJoF+GWGE1jXn7nEePTnxyj9BvPmyn0e/oGTJZeOoAV0nv6TogUCI5z+i3mXhAuDkGFwppTARbu2FRU1tiJa6Ea7+1Xn69w/gr9a89MI2cxXApPflTRau5FVcqbLPdsKSadtWcNDkTQ1aXEJz+u/LqsDWjUtHTfvblIdq0IyywwAoSAb5ApyK7CbBb3DDL9LMc5E9Vk7SabLVYlHN1oD28iIczBXSAqgKH7v+cvoM7s4yXFVFzkCqGxscFkaqPDYnHuChDKEydsHRoSf6BKdT4mRav9LEO0DiN0VKCk3twhRX1inQ86qpqKgYLTYpX5Ovgl4VSVc3eVGslNmZWkl9MnWsbqLHSNxVX2lKthvwbJ8bpibhwUwIabvqgRmhDQ3sJqxcsMqoVHlbIybfWHC/jr0sExB8Kzdpeb5LIsMwIyAr4xzEdvVK40ZFNvL1yWUSHjqr/V/gvsts0viVmm7gFluom4UnNdOr1j7tysiAjIu5qb/94wOFjWKP/xqcc1KZNyCtaTr9vaoUZ3RYWDO5ReamqMGsxQXDf4xKIi6LstmhUlF5+VoHbYMRZ+bd1i2asINXJcotuLYbVjl1O240GZ+trCYIt9oWdk+OC/R2SYIqN6m4epM3KxcBbrrNBPp0dLvdGqdKSlz6GaDngepAQWGYFBBAb/2wbTvE8SfUZRtQHbgDEoYFw96177StA+mzUsEiX7Il1cThauy8j8XrLiMUSAwQP26ChZwdvkFjt7UsXEWNU2CaekpcaqEULGTpVnRRMwHBYyCfJcllOPKqkhlshk0fZqNaY8ddo6tNp99k6qmJKCO1iQvos6R9nINyFS7Z+2d2nbLmjaUzVnO1MJAd8g0wElPMkrPpjixxJSVAVxUb8+sN9bFuYPzuE7QenESOgJcBEp4FBeZKo5StyA7YPA+/f3OZ/9w/06aUyKutCTVa2fsz+iznAcI47KmYqS1mhSvD3aBkvaAy7yJDUW/RMB3yBTd+6N+D8XvxxRCvP+Qh6PcFFy8s3ZObDQ1tNz2769FlsU6ngMjrasveusuCD6pF+9JkRptGYxnqUi0Xrt/4NwIwqbIvJ0YOAEZs9FujcL2OEJYw88BdBXHbHOze3qdlDUUZXbxbP5MhosaxDQ/ng02T50euLECcxKgWXidEOWtSDsFCs+x9+QMxMT78qdBzsI0lq/b6+j58HxEresu02vV6diXt30YpMtSMBRzf0Usz2KCOPWemkPJ+xo574RR826NnUijva7kxXgGJVPIVc2qR7YTIOyNZ+vfDDRBHLEswHBW/JslWP98VTG1BPcpsl2V7LQyU1THOXDfdLS0n901U8ot81o3PTyC8NpcvqURMADLOM9uGBWCpVZEB0tD1YvS0sbfw0R3v/7vHzY6RkYAJNijO+OzeSU1JjYODr0eg9QT5NJ7TRhbzpRAQS0I7hSnI5BgFnQBwrmpUWKeCmcIr7dsWeK+CqKWILzNDfVCbmgPiMu6BxDJcdZZF+lMhEPh+lVyxV/t+NHXnOF4DAoYH5/8exBYFF2mW0zU8eylBIVHZOYaKBj1uyM4dQ4faoiMKXI9Ei7EqmDhVI3ZWejNxoSGIiZIuxCMs6bh4WniOonIx/X1+dHR38/JUVzuJj6H+fV5eKH69SloghlJyLD6vJHr5knZlpkZfdl+Bzfs3k/MRB+9Np5tB1JdtL0DWvmODXyxIcVlP6H1TmXLUki/gXXYDYcC4devnkhbYHqtOyIibADFqODZtVRBIv6RSIURjTiqPDSZ9XUIcWaLkT100MChrBH9doVaa/csggx+aIUVriSjJD++bbeKPQfuWbe2C4tzLIwtRGYOsN83KctVcdOT1CWrq9On4GD7hxG5WDV8Yz0sa5fcOVw/dyvmpvlbVAm6J8G4fcIZcfvHyxzv8R0iAZ1dPCNqg7b9jRctCABRuAWfOaGfPIwDmcBG0Uj9P2SRQaQ+E9XpOFAhMA4CV1ca+Na7cJ8ZNGWzKRTa+zGygKh76aAKFHsG3DHxZl4YJyVG4fDRRsREIatABATBvb89x/NcaEpXz3EQ6552SbLPoSAb/RMHWdRaQK3/4Q9CsYGeUl7+8aSEhl97IeCUTnmi5AoK1MxESRA1sQUluZytEBANusoO51QhhtXaA6IySORNCYBW5nIATq4AhZHvvFVHRmTLyJaIdVC0RJVlZUxzF//yiERkQrGwaesoRObgCgSSglztlP03e5/q1SE9AsmBasiGHNHidGmNdzXICyOGjJojrlyitAcWjWs41LtiyAwKoW1TOteKsQDiU6pjSRjgRMeJ7Lxh7eVidWlpAmvq4gE0KBBBbNzBjvyRYcKZWss+wMCAbn5BVOsnZhxyo6MjAgOLm5vd2eayOeaD6KbkRCemahvMfcU1Zo1lDHO5iA+NH9GJJZ4FVa1d1qd7JWlsY8xfpZBj1dFma39DW3dVc3dgqw1mt5zCurH0gNsXgVOxDxedUvXcJtPo2eamxIBv8eh2o4Rdw68+57fRtvWN4PNH35gQ1fXkLUS3tN8rskEITAFyXSCkGKzjIALBDDGx46LpLDnm13b3n7ThTJnTUkEfGOYPyWh50ZNJQTm2sLm0CL4cz768P2p1DRui5sIMJm6CRSrMQKuEMiZk0vZu77aYbVvoOOqAOdNOQR4mD/lbik3aDIQ0OlCsUADK3c72ts9Ndk4Ge3ga44dgSkVGjV2GLgkIzA+BHp6rDjGZ4NL+zYCPMz37fvHtWcEGAEvQYDJ1EtuBFeDEWAEfBsBJlPfvn9ce0aAEfASBJhMveRGcDUYAUbAtxFgMvXt+8e1ZwQYAS9BgMnUS24EV4MRYAR8GwEmU9++f1x7RoAR8BIEmEy95EZwNRgBRsC3EWAy9e37x7VnBBgBL0GAydRLbgRXgxFgBHwbASZT375/XHtGgBHwEgSYTL3kRnA1GAFGwLcR4I1OPH//IkNClscrr6ISn+6B/i+amsQpC0AAm/PjBXwQvio19vW7epGJ+3AFBgSkxIbixdd4QypK1RutZY2dTovjhQL0XuuSus6unpFfKODUiGcTT8uKwXsDXdTZs5djax5HgMnU45BOw9tM78xVd7ck63iLFJOpBujz5ifQS0zxer6GNg/st3RqVgzeu4eXmIoLldSZ//B/R8SpLOBd2fSSPrzW6ZujbXLWZMl4sSvep3K41rzhTed1nqyK8XXdRIDJ1E2gRqGG9/cVtqm/T7yNCu+kcqfwMwWnxut0nx9v+t/SUnf0WUdGIFoffNclyptH6UNvdW7t7JV1WGYEJhQBJlPPw1vX1fXrA/vJ7n3z8842GNy5Rmp4OGg3KTTMHWXW0SDwvVMSiUm/KG7d9EUN3iSqUdCcYmhPLyIc7lV6Gn0+ZQRGRIDJdESIWMEHEEiPC6da4q3XIzIpNPeUm655Wn3g+UDzuIq+gIBPkileRDw3MjIkMLDaYsGY2inOcTpdRkREi9VaZbG4fvmwLjAwOSzMEBZmHRho7elp6OqCi9OpTU50igA8fXnpkcg6Um920dHDa5PnpEQEBwYU1Xa4M+MUEhSYnayPDAsuqe80WUYYsEeHK//JuG/NHc7/H5zW3P3ETIM+PlJ3ZKSa0Fu4MQNW0WTBS6Rd28cbpLOTp5c3dja1T0idXV+dcz2OgG+Q6fvnnBsUEPBube1fqo7dPnfuktg4nBIWe1tbf/vdtwIXpN+QmbkyLR0UKRL/1di48UiJtV87aRsRHPzzzKxLUlOFJgQw6e6WlvsPHcTbz0X6fy9ekhsVdaSj/Y59+0QihFtycn6YmoYiK7/4XE53U/5FVvbqGTNk5dMTEj469zyRcshkumv/kCtSFt4qHBys3rvn/vR0TXWVKDI24abzZ16Qp0QgXPvMfhr/kp1z58XffOEsyA9sLT1Y00GJv7xg1vl58ZBvfO67312RMztR7RUi5e8Hm5//p7YyoMV/W5VFhEsWvqtqr2zuItnxe25KxJ2XZsToQ0SWtW/gqY8rdw+dKSrIjP71D7OEDgT8U7yxfolIwVUefLtMnEJ44md5iVE6OeWRd48eONYup0AWljE9hXmtM+fE4oFBOpXHLRveLHUMAIidHvKby7IyEvX2f0yF2d/Z1/j6jlqNcZwuzYi+7eKMUFvIAU7RukfeOeqoxim+hYBvkClR5/Tg4AdPWTh7uhJPIz5L4+KEHKvTPbJoMSbTRQoJ5yUlLYiJuXn3N+a+QVcawmgeW7xEYw36uBYYDXNGg6rTpoF2kR4RPPjzJsthgUFIp+ppLurOKTrXrtXChpm8ClIuq/68Bau6NuU6F5PgZM9uVVVHjBGlBAerl0OGzi4//ONcDTddmJ+AvuHW3Q3icmDSJ6/Li4sYAt0pM6NwCB1ZWLMs5cplKXIKZPDO3Zdm/t839X/bVS+ygoNGQI8CpIQ+BH1okKBFSnfUQbqwfP3Z6eiQyhZmJ+rvW5X9+7+VyIloyz2XZeFfRE4EbquWJuWlRfz2r0OUL8hP+MX5M2VNtA7PJA3ysgLLPoGAb5ApQXl+UhKEWotlU2VFRWfn9KDgZfHxV84c/L+8NWcOMem3bcanjhyBZoxOh47q95JTEkJDb8rKfrykWNyVhTExxKRQ+5+S4iMdHX0nThhCQy9KTr4ifUhvURTxuPD80bJXKyvI7OblZ6A3vd9ofLjokLhQ78CAkL1QAJPurTBt2l7TbulbVZB0eUEyKrlyaZJMpiAUYtL2rr6HtpVVNXeBesCMGuqh1qGTS0yKbt3rO2s/LWzGvDwCMG+9aBZIec1pKduLW0UcFTqqv3ihkAreuzILI3GU+uWf1RSkW3u1Y5F7txwODVGCK07Pjrl6+ZARCdnRfINJj3f0bPygoqqlC91VRFOBi+ekTE+0pZMyGnKXvTk7jhg3f1ljNPdmGPRoI4pjII8HDDrspIziN5yTTjJQ2ra3EY+xn587A23UXJpPfQ6BEZ7t3tYecM0vdn/zeVNTVWfn4XbTyxXlP/pyO1VyblTUWYmJkA+a2u45cKDGYsEo3djT8z/Fxcc6lcjt76colCpahL4qyS+UH8VoGrSFcX1jd/fmykrYBLEKzYkTegYG2nt76SBHLXwRIgVCl4NrYuIqMwbLlce7MEwGu1l6+rfsrANRwoheFxSuUwgLH3RrVxYoj0DAeeerRfAkwoewv9L0wNvOw7/W/yDDVm4aaPedvY0YTcO7uvOI8elPjlH6jecNPjthCr5UOqy9ylMHt1CkQHB04LaYe+uM3ThAkWTQ9TeufsemIkT+9/QNoBrv7VdXXsy3+Yip7LVnplFw6wcHmp78qKLV3It/nfImyz1b1Cf32rNU9oT+pYsMeCpA+LKk9S9f1aGBxs5eOBNqWrtd14RzvR8BHyPTJ4+UaGaHuu10c4Gt3wrE0SfV4P5GlfpTzIuOFlmCp2bqh/gNhII3C42NDSZTGx0Wi/NFPieh/lv3DA7ncbkDVarzMSlaHRobonXkGSypN8uT7AhNR0dVU0NQcFqsEhkGvyTcnXLurlIjuSmzkrQ+HFnN4zJWZ1HIKlneU66GDxskx+uKuYqjCcyOkCy5AmhvYbXiZQbVwqNKWVgsQMKb3wyBbttQJGU7LPsKAr40zEf8Zn3XsLMWs+y+1KeWFmjQFz7NnMhI9Gop92CbiQT4AdBL/aq5ubDNiPCAk9Ej1dRv9Kd/fOrx0RfyfAmwnmy0tUOdc48KB3codyo1RiFHfIrrzCSIb/TdFs0a4jadlaBOZMEv+dq6xRofIvk60e3FsNqdYABxofEI1NcWFlrs/dlIW/AApSPeAAKqt3mYOiMXC2dpnRVm8HEK5kXvmIrTN9GunMKyzyHgY2TqAt8Z9g6mPI+v0Y+UZpDgJXirpnq1zT1aEBeHA8oYd+9sbn62rBT+AU1ZPnVEoMXOnpQFjiBBzKulxqp+FQxmNcUxHNakyFEBTj2qpI9l9SaLtlerMeWpU80aqj67B5uYHVeBO1iQvos6R9nJN0qv/OLgNNDUsM0BH40Cn3o/Ar5Epq09rgL3yGEBJ8BN33w9HO4d0mw+dJ4rK3unpuZnGZmYyEKoAFJAxOcaDDj92a6vOnq1v3ZHs+KH5Jg1RVICXLXjxLQR+vEiO2CaoyGRqV5CjRuYNu2zwy3v71MHEJrLD0yDV/QkMSku7TpCGQqiznAcw/Wpqa04bTSp/7rDueK1WIiSLPgOAr5EpsP9IxLaNV3K3D1G9PAGuI9/Q3f3I4eLoJ+u1yPgFEGj4FMs67xyxswXywdD/8hR6+hgRjCW+9fyZk0RNQAA+ySKlIM9x1B/7IFEpbB2XlNcuBFFuog8xVwgZs9FujcLiAPDvyWeqeirulPnjq6+sBCdYzxWtBRU683t5bq5QED7L+5C1cuzKsyd+dHKBD0Cnipt0/ejqjBm/9FR3Xm8+bHFi1EQ3lW5eKetSwuylhMhp4WPMB9Cka1gqPjQUCzH0hSXT6kThDhIOXE4+ZZ1t+nt4bSvbnqxqbFxOE03081WtbuHcau8dAeLedy04FStrk31DNJ+d7IOHKPyKeTKJtUDm2nwpSlBTDRhFI9nA6bp5dkqTevoFOSLeDIwL6aw5IVPeekRTvVF4q9uvysgQH2av/DsMxbLEG+1UGNhEhFw7GxNYmXGdekvjx+n8jdn5zg1BDqT050GzBe3q7NSmkFpk1UhBbgCsOpUGMGOUNidRJw6FWq71H96hLU6VRCJWMkKWUyjiXSnQnJKakxsHB16u7PYqaabiU0m1UcspptREB0oBFe6acGpGsxieQ+y8tIiRbwUThET6tgzRXwVRSzBeZqb6oRcUB8v7MHtq1T+Z+AwvWp5ilMQ5HUNCAsjHYrJFfqXLUkSslPBYEhOTDTQoRv6n+xUnxNPPgJTh0wRqL+7tQUILoqNfXjhIkFz6E6ea0jCBnebTl8u44ulnEhZlZZOQ3VlvX9U1O/zF5DOntZWWflwuxqpg12gYBDK86OjHzploazjVBZ2bp+bu3Z2RlZEBA5sBeCoXGFW5ruxpcCv5szFrgKoFS7k5vZ9jtZGm3K4TgniwQeh7ERkKTGhj14zT8y0UO5ov9Hdfs/m/cRA+NFr59FcdnbS9A1r5jg19cSHFZT+h9U54BfiX/AUZsOx3efLNy+kLVCdlh0xEXYQpUSHWMqJ/ZhFoosZJBfGX/qsmjqkK5ckIaqfHhJ4GKfGhq1dkfbKLYvuXZktir9/oIlCEbAO6pJFBsCLq2PBLp4uQocFH0Vg6gzzcQOeKCnZuGQpIvMXx8a+uOx0cnSKuChNgCr00c3E4nocGk10Ej+qr5Pv6KcNDSBfuFOxQv8vZ5wpspqtVnkhgEgXAtYL/KOx4YKkZJS9dvZsHMg6ajav27Nb6JCwubKCNuu7NDUVByU61dQU9Mgpwu8RrIPfP1jmfonpEA0qZqLHdiFEUF60IAFGsGromRvyycM4nClsFI3Qd2KZn65Iw4EIgXESurjWxrXahfnIoi2iSafW2I2VBULfTQFLA7BvwB0XZ+KBcVZuHA4XbQSTvraj9rqz02Ec3yRAdlEEuZoVw/KuEW5WktVOAgK+1DPFTK5rREBt13+9663qakGOgklBai+VD5ls/a7NiIWkZBBqQhO7ovxq7x55FT90sDAJW5SKOH+kQH6o6BC2WXFdJeQ+dvgw5rIw0yU0nc4RY3crxCF80lCP8CzXmsiVf04Dkr4oOAYBW5mIOErbJaZhcSR2tCNT8kXsEVAKBcgf0S5ZGcP89a8cEhGpFP9Q1tCJTUDslodYeeWLmvvfKhUh/YJJwaqHajp2lBjlKwpZXFqkOAoyaI65corQFC2lXJEugsAo/euytnUvFeKBRKfURpJrWro1Afl4WoB8ZQuQsZCMUpw2JGfOXLKGb2Wlhn3rcZHIgjcgEJCbrw1x94ZqjbMOGGSh14mZqODAQDAs5veHi3PSBwdjOT96l/idtPT0gF41NCrXBNZgMyksDNSMCSs5a2rIwG1GQnhmor7F3FNUa5Z/8ONvIOJD82dEwkNSWNXeadWumne0jzF+lkGPV0WZrf0Nbd1Vzd1Oicax4CSmgPqx9GBmQjgCEjCPV93S5biklaoHqGcb9BmJ4aBgrF9wXefVa65evET9nb626aXi4lF3n13b51yPIDA1ydQj0LARRsBLEPj1vb+LilJmAo2tLf/z2P/zklpxNTQI+NIwX1N1PmUE/AEBnS6UmBSN3fb2m/7QZB9tI5Opj944rra/IJCZpQYDNDU1Hi0r9Zdm+2A7eZjvgzeNq+xPCAQGBkZht7MT0xCo3+NyRbU/oeKNbZ1SoVHeCDDXiREYHwKI1mgzOo9hGJ9hLu1hBHiY72FA2RwjwAj4JwJMpv5537nVjAAj4GEEmEw9DCibYwQYAf9EgMnUP+87t5oRYAQ8jACTqYcBZXOMACPgnwgwmfrnfedWMwKMgIcRYDL1MKBsjhFgBPwTASZT/7zv3GpGgBHwMAJMph4GlM0xAoyAfyLAZOqf951bzQgwAh5GgMnUw4CyOUaAEfBPBDyzNv/qn/w0LS3dbDZjG/Diw0XfHtjnn2hyqxkBRsBvEQhKMKivGxoPBBd9/+K4+ITo6BhDUvL8vAUZGVn79+0Zj0EuywgwAoyAbyHgGTJtbGyoqa4yGltTUtOwY1hsbFxx0SGzWX3hpW8hwrVlBBgBRmAMCHiGTLFFWG1tTemRYqu1O2dOLupRV1eLYwwV4iKMACPACPgiAh6egKqpriYUYuPifREOrjMjwAgwAmNDwMNk2t2tvu02JCRkbBXiUowAI8AI+CICHiZT8WJxX8SC68wIMAKMwJgR8ExolOPl8Xp0x0Q5JSk5Zd2v7qAUvJhhw+/vlXNZZgQYAUbAtxDwMJn29fVR+5OTU1wDERwUJAgXAQCulTmXEWAEGAEvR8DDLNbebqIGz5g5y8tbztVjBBgBRsCDCHiYTDFgP368CfULCgq69LLL8e3BurIpRoARYAS8FgEPD/PRzldf/vPV16zF6tLTl5+JAwN/zEo9cP/vwLMyCl1dXVh7SilWq1XOYpkRYAQYAZ9DwPNkinVQ+/buRmiUwZAEOIKDlUsI96gAqLW15bH/elCcssAIMAKMgE8j4HkyvXz1lUsLTgMovb29//rHJ1gZ1WO19vf3+zRMXHlGgBFgBFwj4HkyXbL0VLrkUxsfQy/V9eU5lxFgBBiBqYGAhyegoqKiaUSPaX1m0qnxL8KtYAQYAXcQ8HDPVKfT0VVLS4pHvPyvbr8rIEBl8xeefcZisYxYhBUYAUaAEfBOBDxMpqKRPb29Qh5OMBiSRZYuNJTJVKDBAiPACPgcAh4e5gcGedigzwHKFWYEGAH/RMDD3BcZGUU4YirfNaCabaV4hxTXcHEuI8AIeDkCHibTpQXLqMEN9SPsDJ2dM1dAg+h9U5sawC8SWWAEGAFGwIcQ8IzPdOXlP5qdkYmp/NDQUDQe3czyo2WuUcjLXyAU3tu2VcgsMAKMACPgiwh4hkwzs7Lj4xOo/Vg/+v67b3d2drqGIzMzmxRaWpqLi4tcK3MuI8AIMAJejoBnyPTvn3wYExPX0dHe1masrjqmWYbvCEFYWFhklOpdfXfbW44KnMIIMAKMgG8h4BkyPVj43aiaHRKiw/p9FGk3mY6WlY6qLCszAowAI+CFCATk5hd4YbW4SowAI8AI+BYCHp7N963Gc20ZAUaAEfAUAkymnkKS7TACjIBfI8Bk6te3nxvPCDACnkKAydRTSLIdRoAR8GsEmEz9+vZz4xkBRsBTCDCZegpJtsMIMAJ+jQCTqV/ffm48I8AIeAoBJlNPIcl2GAFGwK8RYDL169vPjWcEGAFPIcBk6ikk2Q4jwAj4NQJMpn59+7nxjAAj4CkEmEw9hSTbYQQYAb9GgMnUr28/N54RYAQ8hQCTqaeQZDuMACPg1wgwmfr17efGMwKMgKcQYDL1FJJshxFgBPwaASZTv7793HhGgBHwFAJMpp5Cku0wAoyAXyPAZOrXt58bzwgwAp5CgMnUU0iyHUaAEfBrBJhM/fr2c+MZAUbAUwj8f+ka/5dbyeaLAAAAAElFTkSuQmCC;" parent="1" vertex="1">
                    <mxGeometry x="630" y="120" width="282" height="252.05" as="geometry"/>
                </mxCell>
                <mxCell id="16" value="GEC放到ECStack中包含两部分：&lt;br&gt;&lt;br&gt;①&amp;nbsp; 在代码执行前，在paser转化为AST的过程中，会将全局定义的变量和函数加入到globalObject中，但是不会赋值。（这个过程也称为变量的作用域提升）&lt;br&gt;&lt;br&gt;②&amp;nbsp; 第二部分：在代码执行中，对变量赋值，或者执行其他函数。" style="text;html=1;strokeColor=none;fillColor=none;align=left;verticalAlign=middle;whiteSpace=wrap;rounded=0;fontSize=13;" parent="1" vertex="1">
                    <mxGeometry x="600" y="435" width="320" height="210" as="geometry"/>
                </mxCell>
            </root>
        </mxGraphModel>
    </diagram>
</mxfile>